<?xml version="1.0" standalone="no"?>
<!DOCTYPE svg PUBLIC "-//W3C//DTD SVG 1.1//EN" "http://www.w3.org/Graphics/SVG/1.1/DTD/svg11.dtd" >
<!--
2013-9-30: Created.
-->
<svg>
<metadata>
Created by iconfont
</metadata>
<defs>

<font id="iconfont" horiz-adv-x="1024" >
  <font-face
    font-family="iconfont"
    font-weight="500"
    font-stretch="normal"
    units-per-em="1024"
    ascent="896"
    descent="-128"
  />
    <missing-glyph />
    
    <glyph glyph-name="food" unicode="&#58993;" d="M68.765 444.025v-154.805c0-173.144 154.398-234.937 210.019-251.58v-62.112h468.506v61.968c55.919 16.406 210.020 78.22 210.020 261.127v145.402l-888.546-0.001zM908.84 298.625c0-181.412-182.355-217.048-190.069-218.467l-19.948-3.565v-52.597h-371.573l-0.049 52.265-19.562 3.833c-7.779 1.528-190.412 39.314-190.412 209.127v25.559h791.611v-16.155zM908.84 347.096h-791.61v48.466h791.611l-0.001-48.466zM440.337 734.81h500.814v-48.466h-500.814v48.466zM84.919 734.81h48.467v-48.466h-48.467v48.466zM84.919 637.882h48.467v-48.466h-48.467v48.466zM440.337 637.882h500.814v-48.466h-500.814v48.466zM142.458 464.746c50.863 10.821 68.897 51.195 71.529 73.344l0.166 182.076c0 30.299 33.384 38.819 37.879 38.874l-0.007 48.464c-29.162 0-86.336-26.37-86.336-87.337v-177.323c-0.947-4.693-6.572-25.004-33.315-30.691l10.083-47.406zM239.39 464.746c50.864 10.821 68.896 51.195 71.53 73.344l0.166 182.076c0 30.299 33.385 38.819 37.88 38.874l-0.007 48.464c-29.163 0-86.338-26.37-86.338-87.337v-177.323c-0.948-4.693-6.569-25.004-33.313-30.691l10.083-47.406zM336.32 464.746c50.867 10.821 68.897 51.195 71.532 73.344l0.164 182.076c0 30.299 33.383 38.819 37.881 38.874l-0.007 48.464c-29.163 0-86.337-26.37-86.337-87.337v-177.323c-0.949-4.693-6.571-25.004-33.313-30.691l10.081-47.406z"  horiz-adv-x="1024" />

    
    <glyph glyph-name="heal" unicode="&#58995;" d="M748.252 834h-447.265c-42.981 0-77.935-34.953-77.935-77.912v-68.186c0-42.963 34.955-77.913 77.935-77.913h447.266c42.981 0 77.933 34.952 77.933 77.914v68.186c-0.001 42.959-34.952 77.912-77.934 77.912zM774.486 687.902c0-14.455-11.763-26.218-26.235-26.218h-447.265c-14.475 0-26.238 11.764-26.238 26.218v68.186c0 14.454 11.763 26.218 26.238 26.218h447.266c14.472 0 26.235-11.764 26.235-26.218v-68.186zM748.252 592.754h-447.265c-42.981 0-77.935-34.948-77.935-77.911v-481.755c0-42.963 34.955-77.914 77.935-77.914h447.266c42.981 0 77.933 34.952 77.933 77.914v481.754c-0.001 42.963-34.952 77.911-77.934 77.911zM774.486 33.090c0-14.456-11.763-26.218-26.235-26.218h-447.265c-14.475 0-26.238 11.764-26.238 26.218v481.755c0 14.453 11.763 26.218 26.238 26.218h447.266c14.472 0 26.235-11.765 26.235-26.218v-481.755zM617.258 431.293c-6.813 1.194-13.63 1.802-20.276 1.802-30.595 0-55.806-12.983-74.080-29.786-18.276 16.803-43.502 29.786-74.060 29.786-6.649 0-13.465-0.608-20.28-1.802-39.782-6.968-70.024-33.663-80.912-71.424-12.352-42.835 1.951-90.645 36.433-121.801 39.009-35.256 82.275-78.215 105.515-101.302 6.949-6.916 12.216-12.136 15.145-14.96l17.955-17.284 17.922 17.284c2.828 2.724 7.724 7.588 14.206 14 23.086 22.918 66.085 65.578 106.691 102.262 34.533 31.223 48.868 79.1 36.502 121.967-10.871 37.672-41.061 64.31-80.761 71.258zM626.851 276.417c-39.076-35.32-79.987-75.689-104.167-99.668-24.182 24.029-65.833 65.239-103.934 99.668-19.621 17.728-28.237 45.511-21.421 69.13 3.145 10.929 12.553 29.995 40.152 34.824 3.889 0.682 7.708 1.027 11.361 1.027 31.434 0 48.7-26.437 51.846-31.739l22.267-37.518 22.212 37.553c3.13 5.292 20.346 31.704 51.817 31.704 3.651 0 7.47-0.346 11.359-1.027 27.498-4.814 36.871-23.786 40-34.665 6.833-23.65-1.819-51.501-21.489-69.29z"  horiz-adv-x="1024" />

    
    <glyph glyph-name="shoes" unicode="&#58996;" d="M779.115 419.116h-93.469c-52.039 0-91.315 13.611-116.712 40.466-36.872 38.967-34.198 95.099-34.122 97.445v186.892c0 16.3-13.226 29.527-29.527 29.527h-393.718c-16.301 0-29.529-13.226-29.529-29.527v-590.551c0-1.692 0.232-3.307 0.501-4.921-0.27-1.615-0.501-3.231-0.501-4.922v-78.742c0-10.688 5.731-19.953 14.227-25.143 5.191-8.497 14.455-14.227 25.147-14.227h816.96c16.303 0 29.529 13.226 29.529 29.527v168.323c0 145.061-122.211 191.485-188.784 195.849zM141.096 714.391h334.677l0.039-155.423c-0.212-3.307-4.672-81.355 49.638-139.352 37.008-39.524 90.894-59.555 160.195-59.555l91.508 0.058c5.382-0.346 131.688-10.188 131.688-136.852v-40.371h-767.747v531.496zM908.844 84.471h-767.748v39.369h767.747v-39.369zM396.647 679.961c-14.9 0-26.974-12.072-26.974-26.97 0-14.918 12.073-26.971 26.974-26.971 14.916 0 26.972 12.052 26.972 26.971 0 14.898-12.055 26.97-26.972 26.97zM396.647 590.956c-14.9 0-26.974-12.053-26.974-26.971 0-14.899 12.073-26.95 26.974-26.95 14.916 0 26.972 12.052 26.972 26.95 0 14.917-12.055 26.971-26.972 26.971zM396.647 501.97c-14.9 0-26.974-12.073-26.974-26.991 0-14.879 12.073-26.951 26.974-26.951 14.916 0 26.972 12.073 26.972 26.951 0 14.918-12.055 26.991-26.972 26.991z"  horiz-adv-x="1031" />

    
    <glyph glyph-name="wuliu32pt" unicode="&#58947;" d="M625.2647-29.7644h-253.65841958672326v15.989159349960726c0 42.1124-34.2622 76.3722-76.3763 76.3722-42.1142 0-76.3763-34.2598-76.3763-76.3722v-15.989159349960726H57.561333430604705V556.3871694990796h567.70337295143V-29.764419723427523zM402.4087 2.2139h190.8764117257307V524.4088507991582H89.54096240694678v-522.1949518226642h98.5102489714052c7.7511 52.1936 52.8613 92.3614 107.1787 92.3614C349.5473 94.5743 394.6576 54.4065 402.4087 2.2139zM976.2551-29.7644H851.9103331178039v15.989159349960726c0 42.1124-34.2622 76.3722-76.3763 76.3722s-76.3763-34.2598-76.3763-76.3722v-15.989159349960726h-105.87255917980247V427.07983986856914h200.72213999682202c9.0582 0 23.2142-3.6365 52.5016-31.9953 17.0611-16.5198 37.2992-39.6941 56.9847-65.2538 12.1503-15.7753 72.7627-96.2397 72.7627-131.1731V-29.764419723427523zM882.7127 2.2139h61.56378386967502V198.6577100725708c0 10.4339-19.9193 51.2003-64.2011 109.161-18.3023 23.9568-37.1873 45.8719-53.1751 61.7092-22.9294 22.7146-32.1645 25.3458-33.1609 25.5737H625.2647063820347v-392.8876221921537h43.09055131880992c7.7511 52.1936 52.8613 92.3614 107.1787 92.3614S874.9616 54.4065 882.7127 2.2139zM976.2551 173.4328H704.1224739840721v179.75812399193345h180.72787634276963l4.7989-5.888c21.6312-26.539 42.9906-56.4108 58.6017-81.9544 28.0052-45.8229 28.0052-61.5293 28.0052-66.6908V173.4328125530891zM736.1021 205.4111h206.71931979329167c-2.2206 7.0342-7.809 20.2763-21.8581 43.2627-13.7562 22.5087-32.2505 48.613-51.3543 72.5388H736.1021029604143V205.41113125301047zM775.534-122.1268c-59.7479 0-108.356 48.606-108.356 108.3515 0 59.7445 48.608 108.3505 108.356 108.3505s108.356-48.606 108.356-108.3505C883.89-73.5218 835.2819-122.1268 775.534-122.1268zM775.534 62.596c-42.1142 0-76.3763-34.2598-76.3763-76.3722s34.2622-76.3732 76.3763-76.3732 76.3763 34.2608 76.3763 76.3732S817.6472 62.596 775.534 62.596zM295.2289-122.1268c-59.7479 0-108.356 48.606-108.356 108.3515 0 59.7445 48.608 108.3505 108.356 108.3505 59.7479 0 108.356-48.606 108.356-108.3505C403.5859-73.5218 354.9779-122.1268 295.2289-122.1268zM295.2289 62.596c-42.1142 0-76.3763-34.2598-76.3763-76.3722s34.2622-76.3732 76.3763-76.3732c42.1142 0 76.3763 34.2608 76.3763 76.3732S337.3441 62.596 295.2289 62.596z"  horiz-adv-x="1000" />

    
    <glyph glyph-name="baby" unicode="&#58997;" d="M143.167 414.657v-396.766c0-44.964 36.508-81.544 81.401-81.544h575.369c35.832 0 67.134 23.254 77.725 57.086h3.82v421.224c0 40.737-30.146 74.485-69.304 80.388 16.193 20.893 25.929 47.014 25.929 75.425v8.386c0 68.062-55.425 123.426-123.535 123.426h-130.786c-1.988 0-3.602 1.626-3.602 3.639v52.628c0 39.929-32.471 72.412-72.4 72.412s-72.412-32.483-72.412-72.412v-52.628c0-2.012-1.591-3.639-3.542-3.639h-130.992c-68.123 0-123.534-55.363-123.534-123.486l0.085-8.687c0-28.989 10.157-55.617 27.037-76.677-35.158-9.001-61.256-40.858-61.256-78.774zM300.836 653.388h130.993c28.928 0 52.458 23.567 52.458 52.532v52.628c0 12.953 10.542 23.495 23.495 23.495 12.94 0 23.482-10.542 23.482-23.495v-52.628c0-28.965 23.556-52.532 52.52-52.532h130.788c41.146 0 74.617-33.435 74.617-74.533v-8.386c0-39.857-31.447-72.412-70.821-74.412h-421.268c-39.363 2-70.797 34.567-70.797 74.484l-0.096 8.314c0 41.098 33.483 74.533 74.629 74.533zM300.909 446.947h413.664c1.289 0 2.53 0.156 3.807 0.193h81.629c17.953 0 32.556-14.567 32.556-32.484l-0.072-396.766c0-17.976-14.604-32.626-32.555-32.626l-575.37-0c-17.917 0-32.483 14.65-32.483 32.626v396.767c0 17.917 14.567 32.484 32.483 32.484h72.521c1.277-0.038 2.517-0.194 3.82-0.194zM247.822 300.091h159.162c10.109 0 18.29 8.17 18.29 18.29 0 10.098-8.181 18.284-18.29 18.284h-159.162c-10.097 0-18.29-8.186-18.29-18.284-0-10.119 8.193-18.29 18.29-18.29zM247.822 87.846h159.162c10.109 0 18.29 8.192 18.29 18.288s-8.181 18.29-18.29 18.29l-159.162 0c-10.097 0-18.29-8.194-18.29-18.29s8.193-18.288 18.29-18.288zM247.822 193.97h268.936c10.109 0 18.29 8.192 18.29 18.288 0 10.098-8.181 18.292-18.29 18.292h-268.936c-10.097 0-18.29-8.194-18.29-18.292-0-10.096 8.193-18.288 18.29-18.288z"  horiz-adv-x="1024" />

    
    <glyph glyph-name="bianji" unicode="&#58898;" d="M283.41275182 132.52650874000005c9.25214658-9.25044297 24.23919481-9.25044297 33.49399129 0l589.78860215 708.16693074c9.2547965 9.25176729 9.2547965 24.26204599 0 33.51513889-9.25214658 9.22792318-24.24184342 9.22792318-33.49134139 0L283.41275182 166.01912783C274.15928092 156.76736054000003 274.15928092 141.77827732000003 283.41275182 132.52650874000005zM891.12805134 384.91934871c-13.07143968 0-23.68809302-10.59502291-23.68809304-23.68712212L867.43995959-17.723314569999957c0-26.13650893-21.21210994-47.37027002-47.3708862-47.37027002L109.49119973-65.09358458999998c-26.16010059 0-47.37088622 21.23243678-47.3708862 47.37027002L62.12031353 692.82411931c0 26.18287411 21.21078562 47.3689457 47.3708862 47.36894569l331.60150596 0c13.07011536 0 23.68676871 10.61621839 23.68676872 23.68447351 0 13.09209921-10.61665335 23.6844735-23.68676872 23.68447349l-331.60150596 0c-52.32285239 0-94.74309804-42.41983268-94.74309804-94.73921572L14.74810169-17.723314569999957c0-52.32070864 42.42024564-94.74318995 94.74309804-94.74318995l710.57787236 0c52.32020247 0 94.74442236 42.41850838 94.74442235 94.74318995L914.81349574 361.23222529C914.81349574 374.32565010999997 904.1981667 384.91934871 891.12805134 384.91934871z"  horiz-adv-x="1024" />

    
    <glyph glyph-name="shangchengxitongtubiaozitihuayuanwenjian41" unicode="&#58974;" d="M706.24 642.656c6.272 0 11.392 5.056 11.392 11.392 0 6.336-5.12 11.456-11.392 11.456L317.888 665.504c-6.4 0-11.392-5.12-11.392-11.456 0-6.336 4.992-11.392 11.392-11.392L706.24 642.656zM706.24 619.808 272.128 619.808c-75.008 0-110.016-26.688-126.016-49.024-19.776-27.456-23.488-64-10.496-103.104 20.096-60.416 87.872-133.056 129.472-165.312C267.264 300.768 269.632 300 272.128 300c3.52 0 6.848 1.472 9.024 4.416C284.992 309.408 284.096 316.512 279.104 320.48 241.024 350.112 175.744 419.616 157.376 474.912 146.752 506.848 149.248 536.16 164.608 557.408 183.232 583.264 220.352 596.96 272.128 596.96l34.368 0 0-217.024c0-153.6 152.384-242.176 183.488-258.624-0.512-1.344-0.896-2.624-0.896-4.032l0-57.152c0-6.336 5.12-11.392 11.52-11.392C506.88 48.736 512 53.792 512 60.128l0 57.152c0 1.344-0.384 2.56-0.768 3.776 34.624 16.256 206.4 104.768 206.4 258.944L717.632 596.96l34.24 0c51.776 0 88.896-13.696 107.52-39.552 15.36-21.312 17.856-50.624 7.232-82.496-14.4-43.2-86.144-126.848-121.856-154.496-4.864-3.968-5.888-11.072-1.984-16.064C745.024 301.472 748.352 300 751.872 300c2.368 0 4.864 0.768 6.976 2.368 39.488 30.656 113.28 116.992 129.472 165.312 12.992 39.104 9.28 75.712-10.496 103.104-16 22.4-51.008 49.024-126.016 49.024L706.24 619.808zM694.72 379.936c0-139.2-163.392-223.936-193.856-238.528-28.032 15.104-171.648 99.712-171.648 238.528L329.216 596.96l365.504 0L694.72 379.936zM374.976 25.888c-26.112 0-45.76-19.712-45.76-45.696l0-34.24c0-6.336 5.12-11.456 11.52-11.456l319.744 0c6.272 0 11.392 5.12 11.392 11.456l0 32.576c0 26.56-20.032 47.36-45.632 47.36L374.976 25.888zM649.152-21.472l0-21.12L352.128-42.592l0 22.784c0 13.44 9.344 22.848 22.848 22.848l251.264 0C639.232 3.04 649.152-7.584 649.152-21.472z"  horiz-adv-x="1024" />

    
    <glyph glyph-name="renshu" unicode="&#59051;" d="M503.232 780C261.024 780 64 582.944 64 340.768c0-242.176 197.024-439.232 439.232-439.232s439.264 197.056 439.264 439.232C942.464 582.944 745.408 780 503.232 780zM503.232-68.16c-225.504 0-408.928 183.424-408.928 408.928 0 225.504 183.424 408.928 408.928 408.928s408.928-183.424 408.928-408.928C912.16 115.296 728.704-68.16 503.232-68.16zM720.096 361.824c26.944 20.608 44.608 52.736 44.608 89.184 0 62.08-50.528 112.64-112.672 112.64-41.696 0-77.76-23.04-97.216-56.8-20.288 49.888-69.088 85.184-126.144 85.184-75.2 0-136.32-61.152-136.32-136.288 0-46.24 23.264-87.04 58.528-111.68-67.584-14.72-105.888-60.192-105.888-130.656 0-86.56 127.552-131.456 195.84-136.288 12.288-0.864 25.056-1.376 37.952-1.376 45.76 0 106.752 6.208 137.792 35.808 11.872 11.36 19.2 24.672 22.016 39.488 3.904-0.672 7.52-1.76 11.968-1.76 5.632 0 12 0.576 19.232 1.856 100.64 17.6 121.376 77.92 121.088 125.408C790.688 308.128 766.336 344.576 720.096 361.824zM652.032 533.344c45.408 0 82.368-36.928 82.368-82.336 0-38.048-26.048-69.824-61.184-79.264-4.896 0.384-9.824 0.736-14.592 0.736-8.736 0-16.544-0.832-23.84-1.984-37.152 8-65.088 40.992-65.088 80.48C569.696 496.416 606.624 533.344 652.032 533.344zM591.712 356.192c-7.36-4.192-12.352-8.16-14.784-10.368-11.36-10.208-24.064-24-30.816-38.624-14.112 9.728-32.384 19.872-55.36 27.904 27.104 14.016 48.992 36.512 61.728 64.384C561.632 381.824 575.04 366.848 591.712 356.192zM322.624 455.744c0 58.464 47.552 106.016 106.016 106.016 58.432 0 105.984-47.552 105.984-106.016s-47.552-106.016-105.984-106.016C370.176 349.696 322.624 397.28 322.624 455.744zM595.584 133.472c-18.208-17.44-60.8-27.424-116.8-27.424-12.128 0-24.192 0.48-35.808 1.312-60.192 4.224-167.68 43.328-167.68 106.048 0 70.336 42.496 106.016 126.24 106.016 85.44 0 133.952-39.264 150.816-56.128 7.52-7.52 14.208-15.008 20.384-22.368 10.016-12.032 18.048-23.584 24.064-34.528 0.864-1.536 1.664-3.072 2.432-4.608 2.304-4.608 4.32-9.056 5.856-13.376 0.224-0.64 0.576-1.312 0.736-1.952 1.696-4.992 2.72-9.76 3.296-14.304 0.352-2.528 0.672-5.088 0.672-7.456C609.6 152.64 604.96 142.432 595.584 133.472zM664.608 180.96c-5.28-0.896-9.92-1.344-14.016-1.344-5.664 0-9.472 0.864-12.16 2.016-1.12 6.016-2.912 11.968-5.088 17.92-0.48 1.28-1.12 2.624-1.632 3.904-1.952 4.832-4.096 9.632-6.592 14.336-0.896 1.76-1.92 3.488-2.912 5.248-2.816 4.96-5.824 9.824-9.024 14.56-0.864 1.28-1.664 2.528-2.56 3.776-5.088 7.264-10.496 14.144-16.096 20.736-6.368 8.768-13.536 16.576-22.912 25.632-0.096 5.92 7.84 19.552 25.6 35.52 2.72 2.432 15.04 12.32 38.208 16.704 5.472-0.832 10.944-1.696 16.64-1.696 7.68 0 15.168 0.8 22.4 2.272 5.248-0.544 10.272-0.544 15.712-1.568 51.456-9.984 70.304-42.912 70.432-62.624C760.896 223.52 729.536 192.352 664.608 180.96z"  horiz-adv-x="1024" />

    
    <glyph glyph-name="jiantouyou" unicode="&#58992;" d="M507.913259-147.013917c-249.059397 0-450.962913 200.209858-450.962913 447.184809 0 246.973928 201.902492 447.184809 450.962913 447.184809 249.061444 0 450.963936-200.210881 450.963936-447.184809C958.877195 53.195941 756.974703-147.013917 507.913259-147.013917zM507.913259 710.088936c-228.30692 0-413.382499-183.523827-413.382499-409.919067s185.076602-409.919067 413.382499-409.919067c228.307944 0 413.382499 183.52485 413.382499 409.919067S736.22018 710.088936 507.913259 710.088936zM708.36669 280.409826 509.051222 82.76642c-11.000992-10.900258-28.855347-10.900258-39.85634 0-11.010203 10.916631-11.010203 28.621874 0 39.539528l151.936496 150.661372L312.534611 272.96732c-15.561032 0-28.185054 12.519128-28.185054 27.949562 0 15.438621 12.624022 27.949562 28.185054 27.949562l307.090399 0L469.194883 478.036859c-11.010203 10.917654-11.010203 28.612665 0 39.522132 11.000992 10.917654 28.855347 10.917654 39.85634 0l197.14904-195.497533c3.688147-3.057639 6.605712-6.823406 8.3321-11.354606 0.145315-0.372483 0.108475-0.782829 0.237417-1.163499 0.91692-2.756787 1.741739-5.567809 1.741739-8.625448 0-0.054235-0.017397-0.100284-0.017397-0.155543C716.659904 293.410931 714.017619 286.013451 708.36669 280.409826z"  horiz-adv-x="1024" />

    
    <glyph glyph-name="weixin2" unicode="&#58883;" d="M690.66432057 562.74965163c11.58404665 0 23.02371385-0.85109987 34.40399929-2.12250965C694.15851349 704.5933898000001 540.25219527 811.5420399 364.56102343 811.5420399c-196.40133632 0-357.3018624-133.87064547-357.3018624-303.86238009 0-98.12445867 53.52600121-178.70066233 142.98944057-241.19536298l-35.73367922-107.48306205 124.87692516 62.63790933c44.71774777-8.8532992 80.56553245-17.93712925 125.16801081-17.93712924 11.20679936 0 22.32860103 0.54838272 33.36307712 1.41461845-6.99071374 23.88900637-11.03447609 48.90504989-11.03447609 74.85718642C386.89078841 436.07318643 520.92643328 562.74965163 690.66432057 562.74965163zM498.53728654 659.6190003300001c26.89631801 0 44.71774777-17.69262763 44.71774777-44.58435016 0-26.7787867-17.82259485-44.714752-44.71774777-44.714752-26.77871957 0-53.6424357 17.93712925-53.64243569 44.714752C444.89601593 641.9263727 471.75973205 659.6190003300001 498.53728654 659.6190003300001zM248.49351566 570.31873423c-26.77988352 0-53.81708686 17.93712925-53.81708686 44.714752 0 26.89172253 27.03836729 44.58435015 53.81708686 44.58435015 26.77755449 0 44.60131328-17.69262763 44.60131328-44.58435015C293.09482894 588.25586347 275.27107015 570.31873423 248.49351566 570.31873423zM1016.73850994 284.27705459000003c0 142.84037461-142.93005995 259.27919389-303.48361159 259.27919388-169.99870009 0-303.88996665-116.43881927-303.88996665-259.27919388 0-143.09884814 133.89126656-259.27570091 303.88996665-259.27570091 35.58813696 0 71.49530226 8.98486499 107.22781752 17.93712924l97.98526522-53.66934528-26.86604516 89.28513024C963.32894322 132.35517896 1016.73850994 203.70201486999997 1016.73850994 284.27705459000003zM614.74917376 328.97899861999997c-17.79348594 0-35.76162304 17.69146368-35.76162304 35.74502286 0 17.80789248 17.9681371 35.7322149 35.76162304 35.7322149 27.01042347 0 44.71774777-17.92548637 44.71774777-35.7322149C659.46692153 346.67046230000005 641.75959609 328.97899861999997 614.74917376 328.97899861999997zM811.26694343 328.97899861999997c-17.67938048 0-35.50081024 17.69146368-35.50081024 35.74502286 0 17.80789248 17.82259485 35.7322149 35.50081024 35.7322149 26.77871957 0 44.71541874-17.92548637 44.71541874-35.7322149C855.98352725 346.67046230000005 838.04566301 328.97899861999997 811.26694343 328.97899861999997z"  horiz-adv-x="1024" />

    
    <glyph glyph-name="gou" unicode="&#58911;" d="M958.367568 576.370445 930.967422 605.010739 386.079571 46.998799 84.721968 362.177108 62.933863 339.83117 364.290443 24.684584 364.284303 24.678444 391.685472-3.962873 413.473577 18.349295 413.472554 18.350318Z"  horiz-adv-x="1024" />

    
    <glyph glyph-name="02" unicode="&#58946;" d="M722.055 691.125c-89.793 0-169.909-49.429-210.04-125.049l-0.029 0c-40.131 75.62-120.262 125.049-210.041 125.049C171.293 691.125 65 586.491 65 457.891c0-62.408 8.803-126.417 77.076-210.229 66.526-81.615 354.515-325.355 369.561-338.16l0-0.626c0 0 0.262 0.219 0.364 0.306 0.087-0.087 0.364-0.306 0.364-0.306l0 0.626c15.017 12.805 303.035 256.545 369.532 338.16C950.197 331.474 959 395.482 959 457.891 959 586.491 852.707 691.125 722.055 691.125zM858.789 266.49c-53.532-65.712-259.543-243.697-345.174-316.785l-0.059 0.059-1.629-1.397C370.319 69.094 209.62 211.953 165.167 266.49c-64.94 79.724-70.368 138.262-70.368 191.4 0 112.172 92.921 203.435 207.145 203.435 77.57 0 147.967-41.848 183.718-109.218l26.308-49.574 26.337 49.574c35.78 67.37 106.191 109.218 183.747 109.218 114.224 0 207.146-91.263 207.146-203.435C929.2 404.752 923.758 346.214 858.789 266.49z"  horiz-adv-x="1024" />

    
    <glyph glyph-name="cuo" unicode="&#58965;" d="M512 872.92996267c-263.9342008 0-478.68361053-214.75065249-478.68361053-478.68361052 0-263.93295925 214.74940974-478.68236899 478.68361053-478.68236899 263.93171649 0 478.68236899 214.74940974 478.68236899 478.68236899C990.68236899 658.17931018 775.93171649 872.92996267 512 872.92996267zM742.86697919 204.10796655000001c9.74654669-9.74654669 9.74654669-25.54991107 0-35.29645778s-25.54991107-9.74654669-35.29645776 0L512 364.38327055 316.42823702 168.81274912000003c-9.74654669-9.74654669-25.54991107-9.74654669-35.29645776 0s-9.74654669 25.54991107 0 35.29645776l195.57176298 195.57176297L281.13302081 595.25149128c-9.74654669 9.74654669-9.74654669 25.54991107 0 35.29645776s25.54991107 9.74654669 35.29645776 0l195.57176298-195.57176297L707.57052143 630.54795026c9.74654669 9.74654669 25.54991107 9.74654669 35.29645776 0s9.74654669-25.54991107 0-35.29645776L547.29521622 399.67972952 742.86697919 204.10796655000001z"  horiz-adv-x="1024" />

    
    <glyph glyph-name="package" unicode="&#58999;" d="M884.684 670.753h-37.851c14.056 22.426 26.597 51.543 23.743 81.835-1.851 19.961-11.367 48.548-46.14 71.364-29.121 19.094-66.522 23.77-108.014 13.326-70.889-17.778-152.362-79.148-204.436-150.401-52.075 71.255-133.547 132.624-204.435 150.402-41.492 10.442-78.953 5.768-108.013-13.326-34.774-22.816-44.292-51.403-46.14-71.364-2.856-30.293 9.686-59.411 23.741-81.835h-37.853c-47.427 0-86.007-38.58-86.007-85.98v-114.676c0-39.644 27.102-72.793 63.721-82.676-4.032-9.911-6.327-20.662-6.327-31.973v-344.029c0-47.429 38.58-86.009 86.007-86.009h315.026c0.112 0 0.167-0.055 0.279-0.055s0.167 0.055 0.278 0.055h315.137c47.427 0 86.007 38.58 86.007 86.009l0 344.028c0 11.34-2.294 22.091-6.328 32 36.509 9.94 63.612 43.033 63.612 82.649v114.676c0 47.399-38.58 85.979-86.009 85.979zM730.309 781.65c25.925 6.551 46.978 4.648 62.658-5.627 16.965-11.143 19.822-21.698 20.493-28.67 2.743-28.277-28.11-65.373-39.477-76.6l-201.915-0c44.235 52.719 106.781 97.99 158.24 110.897zM210.513 747.353c0.672 6.972 3.528 17.526 20.495 28.67 15.623 10.275 36.621 12.179 62.658 5.627 51.459-12.878 113.838-58.205 158.073-110.897l-201.75-0c-11.366 11.228-42.22 48.323-39.476 76.6zM110.618 584.773c0 15.791 12.878 28.642 28.668 28.642h344.029v-171.959h-344.029c-15.79 0-28.668 12.851-28.668 28.642v114.675zM168.012 11.419v344.029c0 15.819 12.878 28.67 28.67 28.67h286.635v-401.368h-286.635c-15.79-0.001-28.67 12.851-28.67 28.67zM856.075 11.419c0-15.819-12.881-28.671-28.672-28.671l-286.746-0v401.368h286.746c15.79 0 28.672-12.851 28.672-28.67v-344.028zM913.356 470.097c0-15.791-12.88-28.642-28.672-28.642h-344.028v171.96h344.028c15.791 0 28.672-12.851 28.672-28.642l0-114.676z"  horiz-adv-x="1024" />

    
    <glyph glyph-name="49" unicode="&#58989;" d="M505.859 746.957C259.034 743.567 61.653 540.699 65.043 293.859c3.39-246.825 206.258-444.207 453.098-440.816 246.825 3.391 444.207 206.258 440.816 453.098C955.566 552.966 752.699 750.347 505.859 746.957zM517.733-117.157C287.699-120.314 98 64.248 94.843 294.268 91.686 524.301 276.248 714 506.267 717.157c230.034 3.157 419.732-181.405 422.891-411.424C932.314 75.699 747.752-113.999 517.733-117.157zM619.167 512.398c-25.683 22.525-61.987 33.947-107.895 33.947-43.26 0-78.545-13.78-104.868-40.975-24.445-25.304-37.73-58.582-39.52-98.96l24.212 0c1.746 32.783 12.31 60.706 31.386 83.042 21.346 24.998 50.738 37.672 87.349 37.672 36.552 0 66.104-9.676 87.828-28.767 22.089-19.44 33.278-43.972 33.278-72.885 0-24.169-12.194-50.157-36.392-77.396-21.492-21.434-42.925-42.605-64.213-63.34-12.79-13.213-22.146-27.879-27.821-43.638-5.282-14.507-8.206-38.924-8.657-72.536l22.073 0c0.189 17.781 0.917 31.838 2.139 41.79 1.63 13.066 6.461 26.046 14.362 38.632 5.689 8.775 32.055 36.363 80.626 84.352 29.334 28.811 44.22 58.64 44.22 88.658C657.275 459.753 644.456 490.165 619.167 512.398zM503.168 109.501c-16.428 0-29.801-13.372-29.801-29.8 0-16.442 13.373-29.814 29.801-29.814s29.8 13.372 29.8 29.814C532.968 96.129 519.596 109.501 503.168 109.501z"  horiz-adv-x="1024" />

    
    <glyph glyph-name="mobile" unicode="&#59191;" d="M716.69077333 857.31555555L335.78097778 857.31555555C288.15815111 857.31555555 249.20064 821.81688889 249.20064 778.41749333l0-788.87139555c0-43.39939555 38.95751111-78.89806222 86.58033778-78.89806223l380.90979555 0C764.3136-89.31555555 803.27111111-53.81688888999997 803.27111111-10.417493329999957L803.27111111 778.41749333C803.27111111 821.81688889 764.3136 857.31555555 716.69077333 857.31555555M474.3168 794.21895111l103.87456 0c9.53912889 0 17.33063111-7.02691555 17.33063111-15.76504889 0-8.70172445-7.79150222-15.76504889-17.33063111-15.76504889l-103.87456 0c-9.57553778 0-17.33063111 7.06332445-17.33063111 15.76504889C457.02257778 787.15562667 464.77767111 794.21895111 474.3168 794.21895111M526.27228445-57.74904889000004c-28.72661333 0-51.95548445 21.15356445-51.95548445 47.33155556 0 26.17799111 23.22887111 47.33155555 51.95548445 47.33155555 28.69020445 0 51.95548445-21.15356445 51.95548444-47.33155555C578.19136-36.59548444999996 554.96248889-57.74904889000004 526.27228445-57.74904889000004M768.68266667 68.44416000000001L283.86190222 68.44416000000001 283.86190222 699.55584 768.68266667 699.55584 768.68266667 68.44416000000001z"  horiz-adv-x="1024" />

    
    <glyph glyph-name="wujiaoxing" unicode="&#58969;" d="M536.831634 812 375.791901 468.259933 0 420.840781l276.270224-259.780848-71.226298-373.059933 331.787708 183.188185 331.787708-183.188185-71.226298 373.059933 276.270224 259.780848-375.791901 47.419152L536.831634 812z"  horiz-adv-x="1074" />

    
    <glyph glyph-name="fenxiang" unicode="&#58986;" d="M836.061867 743.8016c-75.400533 0-136.533333-61.149867-136.533333-136.533333 0-13.090133 1.9456-25.719467 5.376-37.700267l-398.8992-167.304533c-23.6032 40.891733-67.669333 68.471467-118.237867 68.471467-75.383467 0-136.533333-61.149867-136.533333-136.618667 0-75.656533 61.149867-136.789333 136.533333-136.789333 39.492267 0 75.008 16.878933 99.925333 43.7248l257.109333-184.849067c-10.001067-19.012267-15.7184-40.6528-15.7184-63.6416 0-75.4176 60.893867-136.5504 136.277333-136.5504s136.533333 61.1328 136.533333 136.5504c0 75.383467-61.149867 136.516267-136.533333 136.516267-40.106667 0-76.066133-17.425067-100.9664-44.9536l-256.682667 184.541867c10.564267 19.421867 16.571733 41.728 16.571733 65.450667 0 12.7488-1.860267 25.002667-5.102933 36.6592l399.2064 167.441067c23.722667-40.328533 67.464533-67.498667 117.6576-67.498667 75.400533 0 136.533333 61.1328 136.533333 136.5504C972.5952 682.651733 911.4624 743.8016 836.061867 743.8016zM665.3952 94.926933c56.4736 0 102.4-45.9264 102.4-102.382933 0-56.4736-45.9264-102.417067-102.4-102.417067s-102.314667 45.943467-102.314667 102.417067C563.080533 49.000533 608.938667 94.926933 665.3952 94.926933zM187.784533 231.460267c-56.4736 0-102.4 45.9264-102.4 102.656 0 56.541867 45.9264 102.485333 102.4 102.485333s102.4-45.9264 102.4-102.485333C290.184533 277.403733 244.258133 231.460267 187.784533 231.460267zM836.061867 504.8512c-56.4736 0-102.4 45.943467-102.4 102.417067s45.9264 102.4 102.4 102.4 102.4-45.9264 102.4-102.4S892.535467 504.8512 836.061867 504.8512z"  horiz-adv-x="1024" />

    
    <glyph glyph-name="list" unicode="&#59158;" d="M362.86919111 864.53260642L89.46270815 864.53260642C48.03748347 864.53260642 14.8973037 839.67747161 14.8973037 798.2522469099999l0-273.40648296c0-41.42522469 33.14017975-74.56540445 74.56540445-74.56540445l273.40648296 0c41.42522469 0 74.56540445 33.14017975 74.56540444 74.56540445L437.43459555 798.2522469099999C437.43459555 839.67747161 404.29441581 864.53260642 362.86919111 864.53260642zM379.43928098 516.5607190200001c0-8.28504494-8.28504494-8.28504494-8.28504493-8.28504494L89.46270815 508.27567408c-8.28504494 0-8.28504494 8.28504494-8.28504495 8.28504494L81.1776632 798.2522469099999c0 8.28504494 8.28504494 8.28504494 8.28504495 8.28504494l273.40648296 0C371.15423605 806.53729185 379.43928098 798.2522469099999 379.43928098 798.2522469099999L379.43928098 516.5607190200001zM362.86919111 309.43459555000004L89.46270815 309.43459555000004C48.03748347 309.43459555000004 14.8973037 276.29441581000003 14.8973037 234.86919110999997l0-273.40648296C14.8973037-79.96251653000002 48.03748347-113.10269630000005 89.46270815-113.10269630000005l273.40648296 0c41.42522469 0 74.56540445 33.14017975 74.56540444 74.56540445L437.43459555 234.86919110999997C437.43459555 276.29441581000003 404.29441581 309.43459555000004 362.86919111 309.43459555000004zM379.43928098-38.537291849999974c0-8.28504494-8.28504494-8.28504494-8.28504493-8.28504495L89.46270815-46.822336800000016c-8.28504494 0-8.28504494 8.28504494-8.28504495 8.28504495L81.1776632 234.86919110999997c0 8.28504494 8.28504494 8.28504494 8.28504495 8.28504494l273.40648296 0c8.28504494 0 8.28504494-8.28504494 8.28504494-8.28504494L371.15423605-38.537291849999974zM545.14017975 715.4017975300001l430.82233678 0C992.53260642 715.4017975300001 1009.1026963 731.97188741 1009.1026963 748.54197728s-16.57008987 33.14017975-33.14017977 33.14017975L545.14017975 781.68215703C528.57008987 781.68215703 512 765.11206717 512 748.54197728S528.57008987 715.4017975300001 545.14017975 715.4017975300001zM975.96251653 599.4111683900001L545.14017975 599.4111683900001C528.57008987 599.4111683900001 512 582.84107852 512 566.27098864s16.57008987-33.14017975 33.14017975-33.14017975l430.82233678 0C992.53260642 533.13080889 1009.1026963 549.70089876 1009.1026963 566.27098864S992.53260642 599.4111683900001 975.96251653 599.4111683900001zM975.96251653 226.58414617000005L545.14017975 226.58414617000005C528.57008987 226.58414617000005 512 210.0140563 512 193.44396642000004s16.57008987-33.14017975 33.14017975-33.14017975l430.82233678 0c16.57008987 0 33.14017975 16.57008987 33.14017977 33.14017975S992.53260642 226.58414617000005 975.96251653 226.58414617000005zM975.96251653 36.02811258999998L545.14017975 36.02811258999998c-16.57008987 0-33.14017975-16.57008987-33.14017975-33.14017976s16.57008987-33.14017975 33.14017975-33.14017974l430.82233678 0c16.57008987 0 33.14017975 16.57008987 33.14017977 33.14017974S992.53260642 36.02811258999998 975.96251653 36.02811258999998z"  horiz-adv-x="1024" />

    
    <glyph glyph-name="phonemenuwholesale6363" unicode="&#58932;" d="M17.33109586 742.74569423c0 0 105.51343948 42.20537579 211.02687896 42.20537581s168.82150318-562.73834392 203.99264967-569.77257322c63.30806369 0 443.15644583 112.54766879 527.56719741 112.5476688 49.23960509-7.03422929 28.1369172-70.34229299 28.1369172-70.342293S383.11101938 102.63082803999998 312.76872641 88.56236944c-49.23960509-7.03422929-84.41075159-28.1369172-91.44498089 7.0342293-7.03422929 35.17114649 56.27383438 84.41075159 84.41075159 211.02687897 28.1369172 140.68458598-56.27383438 365.77992355-91.4449809 386.88261143S66.57070095 665.36917196 45.46801305 665.36917196-3.77159204 728.6772356399999 17.33109586 742.74569423zM995.08896839 461.37652229l-98.47921016 358.74569424c-7.03422929 14.0684586-21.10268789 28.1369172-42.20537581 21.1026879L397.17947799 707.57454775C383.11101938 707.57454775 369.0425608 686.47185985 376.07679009 672.40340126L474.55600029 313.65770700999997c7.03422929-14.0684586 21.10268789-28.1369172 42.20537578-21.1026879l457.22490443 126.61612738C995.08896839 426.20537579 1002.1231977 440.27383438 995.08896839 461.37652229zM769.99363085 362.89731211000003l-56.27383442-14.0684586-49.23960508 182.88996176L439.38485379 468.41075159 418.28216589 517.65035668l232.12956687 63.30806369L601.17212767 770.88261144l56.27383438 14.0684586L706.68556714 602.0611082600001 938.81513401 665.36917196l14.0684586-56.27383439-232.12956686-63.3080637L769.99363085 362.89731211000003zM291.6660385 53.39122295000004c-56.27383438-14.0684586-98.47921019-14.0684586-105.51343947 28.1369172-7.03422929 35.17114649 35.17114649 84.41075159 77.37652228 182.88996176-7.03422929 0 0 0-7.03422931 0-84.41075159 0-154.75304458-70.34229299-154.75304456-154.75304457 0-84.41075159 70.34229299-154.75304458 154.75304456-154.75304457 77.37652229 0 133.65035668 56.27383438 154.75304458 126.61612738C354.9741022 67.45968155000003 312.76872641 60.425452250000035 291.6660385 53.39122295000004zM910.67821681 74.49391086000003m-105.51343949 0a1.64864749 1.64864749 0 1 1 211.02687897 0 1.64864749 1.64864749 0 1 1-211.02687897 0Z"  horiz-adv-x="1024" />

    
    <glyph glyph-name="car" unicode="&#59003;" d="M949.332 326.724c-3.657 48.949-35.242 92.184-80.49 112.343l-40.648 191.109c-14.878 69.888-85.075 126.727-156.524 126.727l-320.26-0c-71.45 0-141.667-56.839-156.524-126.727l-40.667-191.109c-45.25-20.179-76.813-63.394-80.472-112.343l-9.206-122.597c-3.946-52.669 26.014-100.158 73.031-119.371 10.809-42.331 48.99-73.218 94.198-73.218 42.003 0 77.758 26.221 91.362 64.053h376.812c13.605-37.832 49.359-64.053 91.342-64.053 45.209 0 83.429 30.886 94.238 73.218 47.018 19.213 76.957 66.682 72.991 119.371l-9.185 122.597zM854.949 132.266c-11.897-2.774-20.508-13.089-21.125-25.296-1.13-22.831-19.809-40.729-42.536-40.729-22.152 0-40.359 16.809-42.332 39.106-1.233 14.118-13.069 24.926-27.249 24.926l-420.356-0c-14.179 0-25.995-10.808-27.249-24.926-1.973-22.297-20.159-39.106-42.331-39.106-22.707 0-41.386 17.877-42.516 40.729-0.597 12.207-9.227 22.522-21.105 25.296-31.358 7.275-51.517 35.139-49.072 67.772l9.206 122.577c2.384 31.851 26.406 60.764 58.442 70.279 10.44 3.123 18.042 12.123 19.358 22.974 0.165 1.562 0.288 3.145 0.41 4.686 0.062 0.801 0.062 1.623 0.206 2.364l41.674 195.875c9.617 45.229 56.798 83.41 103.035 83.41h320.26c46.216 0 93.397-38.181 103.035-83.41l41.653-195.856c0.166-0.822 0.166-1.623 0.227-2.424 0.102-1.521 0.226-3.042 0.41-4.583 1.274-10.85 8.899-19.911 19.379-23.036 32.015-9.515 56.037-38.427 58.421-70.279l9.187-122.577c2.464-32.612-17.715-60.497-49.033-67.772zM300.859 413.256h421.342c10.151 0 18.885 3.76 24.248 10.233 5.795 6.679 8.137 15.823 6.617 25.749-0.123 0.657-0.246 1.315-0.391 1.972l-33.104 143.846c-4.153 22.686-26.592 41.632-49.69 41.632l-316.663 0c-23.097 0-45.578-18.947-49.729-41.632l-33.085-143.846c-0.165-0.657-0.288-1.315-0.39-1.972-1.541-9.925 0.801-19.069 6.268-25.359 5.711-6.863 14.425-10.624 24.576-10.624zM356.608 581.986h309.863l26.22-114.028h-362.324l26.241 114.028zM267.917 319.572c-34.131 0-61.812-27.679-61.812-61.812 0-34.152 27.68-61.812 61.812-61.812 34.132 0 61.792 27.66 61.792 61.812 0 34.132-27.66 61.812-61.792 61.812zM755.163 319.572c-34.132 0-61.812-27.679-61.812-61.812 0-34.152 27.679-61.812 61.812-61.812 34.152 0 61.811 27.66 61.811 61.812 0 34.132-27.659 61.812-61.811 61.812z"  horiz-adv-x="1024" />

    
    <glyph glyph-name="remenzhuanti" unicode="&#58925;" d="M823.4496-212 200.5504-212C89.9584-212 0-122.0416 0-11.4496L0 611.4496C0 722.0416 89.9584 812 200.5504 812l622.9504 0C934.0416 812 1024 722.0416 1024 611.4496l0-622.9504C1024-122.0416 934.0416-212 823.4496-212zM200.5504 774.9824c-90.1632 0-163.5328-73.3696-163.5328-163.5328l0-622.9504c0-90.1632 73.3696-163.5328 163.5328-163.5328l622.9504 0c90.1632 0 163.5328 73.3696 163.5328 163.5328L987.0336 611.4496c0 90.1632-73.3696 163.5328-163.5328 163.5328L200.5504 774.9824zM343.8592 121.9776c-3.7888 0-7.6288 1.1776-10.8544 3.5328-6.5024 4.7104-9.216 13.056-6.7072 20.6848l62.976 193.792L224.4096 459.744c-6.5024 4.7104-9.216 13.056-6.7072 20.6848 2.4576 7.6288 9.5744 12.8 17.6128 12.8l203.7248 0 62.976 193.792c2.4576 7.6288 9.5744 12.8 17.6128 12.8l0 0c8.0384 0 15.1552-5.1712 17.6128-12.8l62.976-193.792 203.7248 0c8.0384 0 15.1552-5.1712 17.6128-12.8 2.4576-7.6288-0.2048-15.9744-6.7072-20.6848l-164.8128-119.7568 62.976-193.792c2.4576-7.6288-0.2048-15.9744-6.7072-20.6848-6.4512-4.7104-15.2576-4.7104-21.76 0l-164.864 119.7568-164.864-119.7568C351.488 123.1552 347.648 121.9776 343.8592 121.9776zM292.2496 456.2112l129.6384-94.1568c6.5024-4.7104 9.216-13.056 6.7072-20.6848l-49.5104-152.4224 129.6384 94.208c6.4512 4.7104 15.2576 4.7104 21.76 0l129.6384-94.1568-49.5104 152.3712c-2.4576 7.6288 0.2048 15.9744 6.7072 20.6848l129.6384 94.1568-160.2048 0c-8.0384 0-15.1552 5.1712-17.6128 12.8l-49.5104 152.4224L470.0672 469.0112c-2.4576-7.6288-9.5744-12.8-17.6128-12.8L292.2496 456.2112zM1005.5168-29.984 18.4832-29.984c-10.24 0-18.4832 8.2944-18.4832 18.4832 0 10.24 8.2944 18.4832 18.4832 18.4832l986.9824 0c10.24 0 18.4832-8.2944 18.4832-18.4832C1024-21.6896 1015.7056-29.984 1005.5168-29.984zM512-59.9872 519.2192-82.2592 542.5664-82.2592 523.6736-95.9808 530.8928-118.2016 512-104.48 493.056-118.2016 500.3264-95.9808 481.3824-82.2592 504.7808-82.2592ZM432.384-110.6752 224.6656-110.6752c-6.8096 0-12.3392 5.5296-12.3392 12.3392s5.5296 12.3392 12.3392 12.3392l207.7184 0c6.8096 0 12.3392-5.5296 12.3392-12.3392S439.1936-110.6752 432.384-110.6752zM799.3344-110.6752l-207.7184 0c-6.8096 0-12.3392 5.5296-12.3392 12.3392s5.5296 12.3392 12.3392 12.3392l207.7184 0c6.8096 0 12.3392-5.5296 12.3392-12.3392S806.144-110.6752 799.3344-110.6752z"  horiz-adv-x="1024" />

    
    <glyph glyph-name="shoucang" unicode="&#58937;" d="M695.72096999 734.01000846c103.82818317 0 192.78471067-76.58695541 206.91071228-178.1533213 9.84263339-70.56372773-9.79292311-130.00892517-59.93401508-181.7656009-105.51004729-108.88206058-294.75704377-298.51016912-331.62549374-335.42004433-3.78626555-3.79455058-8.10277395-4.5899149-11.04396491-4.5899149-2.949476 0-7.25769936 0.79536432-11.0273948 4.5899149C406.02608867 121.96888373000002 255.39568665 273.42779026000005 168.30329427 361.20784138c-39.1219822 39.41195877-62.13783703 81.74025335-70.35660163 129.34612157-14.71423981 85.20340214 25.73334958 171.55842555 100.65501095 214.88092553 32.18739958 18.62478102 68.39304596 28.46741441 104.71468299 28.4674144 52.94972221 0 103.96902893-20.58005163 143.6378241-57.9621744 17.49801491-16.49552447 34.8800392-21.50797666 49.55285377-21.50797664 18.86504733 0 33.24788533 8.29332997 37.58096384 11.10196021 9.27925033 6.04808281 18.22709886 12.2784366 27.07552687 18.43422498 15.9487115 11.06882003 30.96121293 21.5328318 45.21977526 28.70768071C634.44477762 726.82687451 664.51949075 734.01000846 695.72096999 734.01000846M695.72096999 802.80073659c-40.19903805 0-81.08573481-9.04726907-119.90117034-28.60826018-27.22465767-13.72831947-51.64897014-33.15674985-78.85705773-50.91988619l0 0c0 0-1.77299963 1.38360251-3.38858338 2.90805077-53.56281552 50.47249376-121.52503916 76.52067504-190.26605701 76.52067505-47.34903182 0-95.07089067-12.36128705-138.70822236-37.59753393C64.34255038 707.11675259 10.98686098 592.8162726200001 30.68869783 478.764344c11.31737139-65.53470546 43.22307945-119.70232927 89.33763959-166.21457154 87.12553257-87.78005111 237.78907477-239.28866791 320.77208487-322.62793495 16.38781889-16.42924411 37.79637501-24.6314386 59.22150122-24.6314386 21.40855613 0 42.78397206 8.16905431 59.14693581 24.5568732 85.2116872 85.29453763 241.94816734 242.85123723 332.36286274 336.13255818 63.78656098 65.83296707 91.57460171 147.11754297 78.73278205 239.41294359C950.60209247 706.58650971 826.84837622 802.80073659 695.72096999 802.80073659L695.72096999 802.80073659z"  horiz-adv-x="1024" />

    
    <glyph glyph-name="weixin1" unicode="&#58939;" d="M499.64 540.51c24.69 0 41.19 16.53 41.19 41.16 0 24.9-16.47 41.01-41.19 41.01s-49.53-16.11-49.53-41.01C450.14 557.04 474.95 540.51 499.64 540.51zM269.27 622.6800000000001c-24.69 0-49.65-16.11-49.65-41.01 0-24.63 24.96-41.16 49.65-41.16 24.6 0 41.07 16.53 41.07 41.16C310.31 606.5699999999999 293.87 622.6800000000001 269.27 622.6800000000001zM992 277.02c0 130.2-120.78 241.14-269.04 252.69 0.21 1.62 0.3 3.3-0.06 4.98-29.73 138.6-178.77 243.09-346.71 243.09C186.41 777.78 32 645.45 32 482.79c0-87.27 44.55-165.9 128.97-227.91l-29.43-88.47c-1.89-5.76-0.18-12.09 4.41-16.08 2.79-2.4 6.3-3.66 9.84-3.66 2.28 0 4.59 0.54 6.72 1.59L263 203.54999999999995l13.62-2.76c34.02-6.99 63.39-13.05 99.57-13.05 10.65 0 21.45 0.48 32.04 1.38 4.29 0.36 7.92 2.52 10.38 5.64 39.84-99.69 149.64-171.66 278.85-171.66 33.09 0 66.6 7.98 96.66 15.51l85.17-46.56c2.25-1.23 4.74-1.86 7.2-1.86 3.36 0 6.72 1.14 9.42 3.33 4.74 3.84 6.69 10.17 4.92 15.96l-21.75 72.33C952.01 139.44000000000005 992 208.38 992 277.02zM405.68 219.02999999999997c-9.75-0.84-19.65-1.26-29.46-1.26-33.12 0-61.14 5.73-93.54 12.42L263.84 234c-3.24 0.69-6.66 0.24-9.63-1.29l-82.77-41.43 21.51 64.62c2.1 6.33-0.21 13.23-5.64 17.04C104.15 330.9 62 401.52 62 482.79c0 146.1 140.94 264.99 314.19 264.99 153.15 0 288.75-93.18 316.74-217.11-160.59-2.1-290.52-114.99-290.52-253.65 0-20.16 3.06-39.69 8.22-58.53C409.07 218.88 407.42 219.17999999999995 405.68 219.02999999999997zM852.74 99.41999999999996c-5.01-3.78-7.14-10.29-5.34-16.29l14.19-47.19-58.23 31.86c-2.22 1.23-4.71 1.86-7.2 1.86-1.23 0-2.46-0.15-3.66-0.48-31.23-7.89-63.54-16.02-95.01-16.02-146.16 0-265.05 100.44-265.05 223.89 0 123.45 118.89 223.86 265.05 223.86 143.37 0 264.51-102.51 264.51-223.86C962 215.49 923.21 152.39999999999998 852.74 99.41999999999996zM606.68 384.03c-16.47 0-32.94-16.59-32.94-33.03 0-16.56 16.47-32.91 32.94-32.91 24.75 0 41.1 16.35 41.1 32.91C647.78 367.47 631.43 384.03 606.68 384.03zM787.64 384.03c-16.23 0-32.7-16.59-32.7-33.03 0-16.56 16.47-32.91 32.7-32.91 24.66 0 41.31 16.35 41.31 32.91C828.95 367.47 812.33 384.03 787.64 384.03z"  horiz-adv-x="1024" />

    
    <glyph glyph-name="back" unicode="&#59031;" d="M283.21956012 449.58817329C241.67841223 411.9415069 242.23908374 349.97881099999995 284.59302335 312.91911460999995L762.07867984-104.88083384000004C775.77056068-116.86122842999998 796.58205395-115.47379522999995 808.56245317-101.78191437999999 820.54284776-88.09003352000002 819.15541457-67.27854028000002 805.46353369-55.29814104000002L327.97788031 362.50180739999996C315.26826206 373.62271970999996 315.12380183 389.58767558 327.46188116 400.76906001L805.8922665 834.34659516C819.37329317 846.56377804 820.39784395 867.39628878 808.18066571 880.8773154 795.96348282 894.35834049 775.13097362 895.38289132 761.64994701 883.1657115L283.21956012 449.58817329Z"  horiz-adv-x="1024" />

    
    <glyph glyph-name="close" unicode="&#59034;" d="M18.08111906-65.48818365C6.01985669-77.96534938000002 6.35701457-97.85767747 18.83418179-109.91893837999999 31.31134898-121.98020075 51.20367562-121.64304140000002 63.2649365-109.16587418999995L974.49713882 833.48812769C986.5583997 845.96529341 986.22124035 865.85762002 973.74407461 877.91888094 961.26690887 889.98014331 941.37458079 889.64298543 929.31331989 877.16581821L18.08111906-65.48818365ZM929.31331989-109.16587418999995C941.37458079-121.64304140000002 961.26690887-121.98020075 973.74407461-109.91893837999999 986.22124035-97.85767747 986.5583997-77.96534938000002 974.49713882-65.48818365L63.2649365 877.16581821C51.20367562 889.64298543 31.31134898 889.98014331 18.83418179 877.91888094 6.35701457 865.85762002 6.01985669 845.96529341 18.08111906 833.48812769L929.31331989-109.16587418999995Z"  horiz-adv-x="1024" />

    
    <glyph glyph-name="less" unicode="&#59045;" d="M508.94744185 610.54446648C519.61284573 622.3131879800001 534.84107501 622.1753940599999 545.44879877 610.05227884L943.9687867 154.60086597999998C955.39633225 141.54081603999998 975.24745014 140.21740788 988.3075001 151.64495194999995 1001.36755151 163.07249750999995 1002.69095819 182.92361541000002 991.26341559 195.98366536000003L592.74342768 651.43508263C557.39390262 691.83453923 498.2905616 692.3693392499999 462.38115308 652.74516404L48.81165572 196.39261518C37.1582547 183.53368928999998 38.13552474 163.66252379000002 50.9944506 152.00912128000004 63.85337501 140.35572026 83.72454198 141.33299176000003 95.37794448 154.19191764000004L508.94744185 610.54446648Z"  horiz-adv-x="1024" />

    
    <glyph glyph-name="moreunfold" unicode="&#59046;" d="M462.38115308 168.00996887999997C498.2905616 128.38579513000002 557.39390262 128.92059368000002 592.74342768 169.32005174000005L991.26341559 624.77146756C1002.69095819 637.83151749 1001.36755151 657.6826354 988.3075001 669.11018241 975.24745014 680.53772501 955.39633225 679.21431687 943.9687867 666.15426692L545.44879877 210.70285404000003C534.84107501 198.57973884 519.61284573 198.44194491999997 508.94744185 210.21066640000004L95.37794448 666.56321525C83.72454198 679.42214113 63.85337501 680.39941263 50.9944506 668.74601308 38.13552474 657.09260912 37.1582547 637.22144508 48.81165572 624.3625192L462.38115308 168.00996887999997Z"  horiz-adv-x="1024" />

    
    <glyph glyph-name="more" unicode="&#59047;" d="M711.15423978 400.74686768C723.37846524 389.66866188 723.23533803 373.8510262 710.64300216 362.83273453000004L237.56345285-51.11187273999997C223.99791534-62.98172021000005 222.62328651-83.60117079999998 234.49312938-97.16670681999994 246.3629768-110.73224283000002 266.98242742-112.1068732 280.54796345-100.23703033000004L753.62751575 313.70757701C795.59062506 350.42529686 796.14612284 411.8162183 754.98830357 449.1154918L280.97274005 878.69209773C267.61611253 890.79654076 246.97583839 889.78144427 234.87139376 876.42481833 222.76695222 863.0681908399999 223.78204879 842.42791665 237.13867474 830.32347052L711.15423978 400.74686768Z"  horiz-adv-x="1024" />

    
    <glyph glyph-name="pic" unicode="&#59048;" d="M477.52284781 324.19452562000004L444.53336187 320.37682030999997 657.86669375 184.89295030999995 673.12895844 175.20018187000005 687.68457781 185.95682812999996 981.01791219 402.73102219 992 410.84681812 992 424.64516156 992 668.33987719C992 743.24441156 932.29159625 804 858.66100438 804L58.66666625 804 32 804 32 776.90322563 32 99.53477155999997C32 24.69245436999995 91.71530562-36 165.33899656-36L965.33333375-36 992-36 992-8.903225629999952 992 234.96774187999995C992 249.93287812999995 980.06092625 262.06451625 965.33333375 262.06451625 950.60574031 262.06451625 938.66666563 249.93287812999995 938.66666563 234.96774187999995L938.66666563-8.903225629999952 965.33333375 18.19354781000004 165.33899656 18.19354781000004C121.17324688 18.19354781000004 85.33333344 54.61992563000001 85.33333344 99.53477155999997L85.33333344 776.90322563 58.66666625 749.80645125 858.66100438 749.80645125C902.81985031 749.80645125 938.66666563 713.33094188 938.66666563 668.33987719L938.66666563 424.64516156 949.64875438 446.5593 656.31542187 229.78510594 686.13330594 230.84898562 472.79997219 366.33285844 454.81081625 377.75742187000003 439.81048625 362.51515219 226.4771525 145.74095811999996C216.06317094 135.15901030999999 216.06317094 118.00228030999995 226.4771525 107.42033156000002 236.89113406 96.83838375000005 253.77553438 96.83838375000005 264.18951406 107.42033156000002L477.52284781 324.19452562000004ZM351.99999969 546.58064625C351.99999969 598.95861844 310.21324438 641.41935469 258.66666594 641.41935469 207.12009031 641.41935469 165.33333312 598.95861844 165.33333312 546.58064625 165.33333312 494.20267219 207.12009031 451.74193594 258.66666594 451.74193594 310.21324438 451.74193594 351.99999969 494.20267219 351.99999969 546.58064625ZM218.66666656 546.58064625C218.66666656 569.02834781 236.57527625 587.22580594 258.66666594 587.22580594 280.75805562 587.22580594 298.66666625 569.02834781 298.66666625 546.58064625 298.66666625 524.13294188 280.75805562 505.93548375 258.66666594 505.93548375 236.57527625 505.93548375 218.66666656 524.13294188 218.66666656 546.58064625Z"  horiz-adv-x="1024" />

    
    <glyph glyph-name="refresh" unicode="&#59050;" d="M512 864C246.90332 864 32 649.09668 32 384 32 118.90332000000001 246.90332-96 512-96 745.74299844-96 944.37683563 72.22545562000005 984.64352844 299.84561437 986.51668156 310.43420438 988.03593406 321.10389188 989.19689562 331.84158844 990.58695594 344.69820374999995 981.29147563 356.24741812 968.43486031 357.63748031 955.57824219 359.02753969 944.02902781 349.73206030999995 942.63896844 336.87544405999995 941.59116219 327.18434156 940.22025594 317.55647624999995 938.53025187 308.00319187 902.20409562 102.65815594000003 722.93066187-49.17073218999997 512-49.17073218999997 272.76641-49.17073218999997 78.82926781 144.76640999999995 78.82926781 384 78.82926781 623.23359 272.76641 817.17073219 512 817.17073219 686.41658844 817.17073219 841.72182594 713.14071844 909.77501375 555.79284375 914.90838031 543.92383219 928.69152969 538.4635115599999 940.56054031 543.5968762499999 952.42955188 548.73024187 957.88987156 562.51339031 952.75650594 574.38240187 877.35348406 748.72405594 705.25932219 864 512 864ZM930.54012219 535.6438556200001L953.95475563 559.05849 711.02439031 559.05849C698.09284437 559.05849 687.60975594 548.57539969 687.60975594 535.6438556200001 687.60975594 522.71230969 698.09284437 512.22922219 711.02439031 512.22922219L953.95475563 512.22922219C966.88630156 512.22922219 977.36939 522.71230969 977.36939 535.6438556200001L977.36939 793.75609781C977.36939 806.6876428099999 966.88630156 817.17073219 953.95475563 817.17073219 941.02320969 817.17073219 930.54012219 806.6876428099999 930.54012219 793.75609781L930.54012219 535.6438556200001Z"  horiz-adv-x="1024" />

    
    <glyph glyph-name="selected" unicode="&#59053;" d="M367.07209366 73.39109011000005C385.77953367 56.19623514 414.78034058 57.03601064999998 432.46145147 75.28456408L995.20033941 656.08355239C1013.21574828 674.67713605 1012.7470472 704.35459081 994.15346357 722.37000153 975.55988372 740.38541411 945.88242892 739.91671123 927.86701448 721.32312757L365.1281284 140.52413922999995 430.51748437 142.41761324000004 89.96469151 455.43504516C70.90354424 472.95500672 41.24869708 471.70562714 23.72873553 452.6444799 6.20877398 433.58333075 7.45815353 403.92848357 26.51930081 386.40852202L367.07209366 73.39109011000005Z"  horiz-adv-x="1024" />

    
    <glyph glyph-name="viewlist" unicode="&#58918;" d="M146.571481 762.048781 347.295185 762.048781C388.825594 762.048781 422.4 728.54407 422.4 686.941234L422.4 462.52218C422.4 421.022859 388.764036 387.414635 347.295185 387.414635L146.571481 387.414635C105.041073 387.414635 71.466667 420.919345 71.466667 462.52218L71.466667 686.941234C71.466667 728.440555 105.10263 762.048781 146.571481 762.048781ZM21.333333 462.52218C21.333333 393.349489 77.335661 337.463415 146.571481 337.463415L347.295185 337.463415C416.483543 337.463415 472.533333 393.466982 472.533333 462.52218L472.533333 686.941234C472.533333 756.113925 416.531006 812 347.295185 812L146.571481 812C77.383122 812 21.333333 755.996433 21.333333 686.941234L21.333333 462.52218ZM146.571481 212.585365 347.295185 212.585365C388.825594 212.585365 422.4 179.080655 422.4 137.47782L422.4-86.941233C422.4-128.440555 388.764036-162.048781 347.295185-162.048781L146.571481-162.048781C105.041073-162.048781 71.466667-128.54407 71.466667-86.941233L71.466667 137.47782C71.466667 178.977141 105.10263 212.585365 146.571481 212.585365ZM21.333333-86.941233C21.333333-156.113924 77.335661-212 146.571481-212L347.295185-212C416.483543-212 472.533333-155.996433 472.533333-86.941233L472.533333 137.47782C472.533333 206.650511 416.531006 262.536585 347.295185 262.536585L146.571481 262.536585C77.383122 262.536585 21.333333 206.533018 21.333333 137.47782L21.333333-86.941233ZM998.933333 662.146342C1012.777271 662.146342 1024 673.328303 1024 687.121951 1024 700.9156 1012.777271 712.097561 998.933333 712.097561L572.8 712.097561C558.956062 712.097561 547.733333 700.9156 547.733333 687.121951 547.733333 673.328303 558.956062 662.146342 572.8 662.146342L998.933333 662.146342ZM998.933333 537.268292C1012.777271 537.268292 1024 548.450255 1024 562.243902 1024 576.037551 1012.777271 587.219511 998.933333 587.219511L572.8 587.219511C558.956062 587.219511 547.733333 576.037551 547.733333 562.243902 547.733333 548.450255 558.956062 537.268292 572.8 537.268292L998.933333 537.268292ZM998.933333 412.390244C1012.777271 412.390244 1024 423.572205 1024 437.365854 1024 451.159503 1012.777271 462.341463 998.933333 462.341463L572.8 462.341463C558.956062 462.341463 547.733333 451.159503 547.733333 437.365854 547.733333 423.572205 558.956062 412.390244 572.8 412.390244L998.933333 412.390244ZM998.933333 137.658537C1012.777271 137.658537 1024 148.840497 1024 162.634146 1024 176.427795 1012.777271 187.609756 998.933333 187.609756L572.8 187.609756C558.956062 187.609756 547.733333 176.427795 547.733333 162.634146 547.733333 148.840497 558.956062 137.658537 572.8 137.658537L998.933333 137.658537ZM998.933333 12.780489C1012.777271 12.780489 1024 23.962449 1024 37.756098 1024 51.549745 1012.777271 62.731708 998.933333 62.731708L572.8 62.731708C558.956062 62.731708 547.733333 51.549745 547.733333 37.756098 547.733333 23.962449 558.956062 12.780489 572.8 12.780489L998.933333 12.780489ZM998.933333-112.097562C1012.777271-112.097562 1024-100.915599 1024-87.121952 1024-73.328303 1012.777271-62.146342 998.933333-62.146342L572.8-62.146342C558.956062-62.146342 547.733333-73.328303 547.733333-87.121952 547.733333-100.915599 558.956062-112.097562 572.8-112.097562L998.933333-112.097562Z"  horiz-adv-x="1024" />

    
    <glyph glyph-name="warning" unicode="&#59062;" d="M598.272514 737.82091C545.018272 824.005964 451.264177 824.048599 397.724122 737.602659L25.049726 135.881414C-28.93569 48.716393 14.324655-31.325257 116.435565-33.308966L891.057077-33.313666C993.88467-35.315989 1036.926865 27.961741 983.25955 114.810306 980.374633 119.478901 980.374633 119.478901 971.719878 133.484687 967.393745 140.485568 967.393745 140.485568 963.78822 146.320305 956.511588 158.09591 941.113263 161.714133 929.3951 154.40183 917.676937 147.089527 914.076365 131.615721 921.352996 119.840115 924.958522 114.005378 924.958522 114.005378 929.284655 107.004497 937.939409 92.998711 937.939409 92.998711 940.824326 88.330116 972.284602 37.418686 957.441559 15.597451 891.539823 16.877724L116.918309 16.882423C54.037254 18.108704 33.95555 55.264503 67.458075 109.357783L440.132471 711.079029C474.112981 765.944069 522.112175 765.922241 556.029583 711.034491L857.08969 239.16029C864.534622 227.491405 879.98329 224.0968 891.595253 231.578227 903.207217 239.059657 906.585263 254.584051 899.140331 266.252937L598.272514 737.82091ZM474.536585 276.206654C474.536585 262.345389 485.718547 251.108614 499.512194 251.108614 513.305843 251.108614 524.487806 262.345389 524.487806 276.206654L524.487806 596.206654C524.487806 610.067918 513.305843 621.304693 499.512194 621.304693 485.718547 621.304693 474.536585 610.067918 474.536585 596.206654L474.536585 276.206654ZM474.465781 119.263855C474.565553 105.402953 485.828105 94.24775 499.621393 94.348013 513.414679 94.448275 524.515467 105.766033 524.415695 119.626935L523.955031 183.624333C523.855258 197.485233 512.592708 208.640437 498.79942 208.540175 485.006133 208.439913 473.905346 197.122153 474.005118 183.261252L474.465781 119.263855Z"  horiz-adv-x="1024" />

    
    <glyph glyph-name="wrong" unicode="&#59063;" d="M1008.125 384C1008.125 658.00227159 786.00227159 880.125 512 880.125 237.99772841 880.125 15.875 658.00227159 15.875 384 15.875 109.99772841000004 237.99772841-112.125 512-112.125 625.77040729-112.125 733.73123443-73.68601601 820.8847748-4.26302770999996 831.33936305 4.064673640000024 833.06354374 19.29072759999997 824.73584143 29.745314880000024 816.40814009 40.1999012 801.18208613 41.924081890000025 790.72750079 33.59638247999999 712.06825413-29.06039493000003 614.71510274-63.72256147999997 512-63.72256147999997 264.72965659-63.72256147999997 64.27743852 136.72965659 64.27743852 384 64.27743852 631.27034341 264.72965659 831.72256148 512 831.72256148 759.27034341 831.72256148 959.72256148 631.27034341 959.72256148 384 959.72256148 299.21995651 936.14313364 217.97567961000004 892.30191235 147.60351793999996 885.23436172 136.25897059 888.70155455 121.33301702000006 900.04609996 114.26546832999998 911.39064634 107.19791770999996 926.31660088 110.66510761999996 933.3841515 122.00965497000004 981.97555552 200.00662125999997 1008.125 290.10603850999996 1008.125 384ZM337.42496718 237.12423638999996C328.0597735 227.58787861999997 328.19852861 212.26514035000002 337.73488832 202.89994571 347.2712461 193.53475105999996 362.59398436 193.67350713999997 371.959179 203.20986685000003L711.10287531 548.5519618999999C720.46806996 558.0883196699999 720.32931484 573.41105696 710.79295707 582.7762516 701.25659736 592.14144625 685.93386103 592.00269017 676.56866639 582.46633046L337.42496718 237.12423638999996ZM676.56866639 203.20986685000003C685.93386103 193.67350713999997 701.25659736 193.53475105999996 710.79295707 202.89994571 720.32931484 212.26514035000002 720.46806996 227.58787861999997 711.10287531 237.12423638999996L371.959179 582.46633046C362.59398436 592.00269017 347.2712461 592.14144625 337.73488832 582.7762516 328.19852861 573.41105696 328.0597735 558.0883196699999 337.42496718 548.5519618999999L676.56866639 203.20986685000003Z"  horiz-adv-x="1024" />

    
    <glyph glyph-name="add" unicode="&#59065;" d="M983.32700047 354.54206291C999.59616923 354.54206291 1012.78493895 367.73083124000004 1012.78493895 384 1012.78493895 400.26916876 999.59616923 413.45793709 983.32700047 413.45793709L40.67299953 413.45793709C24.4038294 413.45793709 11.21506105 400.26916876 11.21506105 384 11.21506105 367.73083124000004 24.4038294 354.54206291 40.67299953 354.54206291L983.32700047 354.54206291ZM482.54206291-87.32700047000003C482.54206291-103.59616922999999 495.73083124-116.78493894999997 512-116.78493894999997 528.26916876-116.78493894999997 541.45793709-103.59616922999999 541.45793709-87.32700047000003L541.45793709 855.32700047C541.45793709 871.5961706 528.26916876 884.78493895 512 884.78493895 495.73083124 884.78493895 482.54206291 871.5961706 482.54206291 855.32700047L482.54206291-87.32700047000003Z"  horiz-adv-x="1024" />

    
    <glyph glyph-name="weixin" unicode="&#59009;" d="M814.5676683 310.56380845c-23.8944987 0-43.35469517 19.59159142-43.35469517 43.90998282 0 24.18128199 19.46019649 43.77287451 43.35469517 43.77287449 23.89678314 0 43.35355183-19.59159142 43.35355181-43.77287449C857.92122011 330.15539985 838.46559366 310.56380845 814.5676683 310.56380845M591.56834794 310.56380845c-23.89792537 0-43.35469517 19.59159142-43.35469517 43.90998282 0 24.18128199 19.45676868 43.77287451 43.35469517 43.77287449 23.89221313 0 43.34783958-19.59159142 43.34783959-43.77287449C634.91618753 330.15539985 615.46170329 310.56380845 591.56834794 310.56380845M1013.67363217 248.19108958000004c0 141.85651537-126.29361468 258.00756527-286.36378629 268.02101955-7.48952482 0.40903932-14.99618858 0.69239593-22.49713899 0.69239593-170.62863129 0-308.87806422-120.32598779-308.87806422-268.71341548 0-22.37716967 3.2003298-44.04708998 9.16909778-64.74925669 33.20298924-117.14279695 154.77780284-203.98015443 299.70896644-203.98015443 49.31775092 0 95.85906362 10.01231207 137.12057646 27.93689945l69.33323504-47.38224254c0 0 18.4867295-12.92014409 16.68261714 11.95353272l-19.5915914 74.19142884C972.96855029 95.34993735 1013.67363217 167.60471557999995 1013.67363217 248.19108958000004M231.84720595 550.3908509299999c-23.90935208 0-43.35355183 19.58016582-43.35355181 43.7614489 0 24.31267804 19.44420086 43.90426945 43.35355181 43.90426949 24.02932141 0 43.34898181-19.59159142 43.34898182-43.90426949C275.19504555 569.9721600600001 255.87652737 550.3908509299999 231.84720595 550.3908509299999M504.86124318 638.05771151c23.90935208 0 43.35355183-19.59159142 43.35355181-43.90426945 0-24.18128199-19.44420086-43.76144892-43.35355181-43.76144892-24.02932141 0-43.35469517 19.58016582-43.35469518 43.76144892C461.506548 618.46612011 480.83192174 638.05771151 504.86124318 638.05771151M704.81270689 539.28167472c6.66116394 0 13.18636289-0.28906886 19.72869972-0.57242547-25.43010779 150.20753565-174.10203435 265.540508-353.7523729 265.54050801-197.43895984 0-357.50913145-139.37714605-357.50913144-311.10264149 0-95.73909428 49.74278584-181.32305594 127.83265156-238.43082612l-26.40586037-99.62153663c0 0-9.02170724-33.06702428 25.15703456-18.21251402L238.37240492 204.14399958c40.98729626-14.31407602 85.58967389-22.24006136 132.41662991-22.24006137 4.02754736 0 7.90998972 0.28335662 11.80157212 0.28335662-5.69683807 21.26430993-8.74977623 43.35355183-8.7497762 65.9980825C373.84082963 408.66344603 522.36536562 539.28167472 704.81270689 539.28167472"  horiz-adv-x="1024" />

    
    <glyph glyph-name="iconfont55" unicode="&#59232;" d="M68.26666667 349.86666667c-18.8416 0-34.13333333 15.27474252-34.13333334 34.13333333v0c0 18.8416 15.29173333 34.13333333 34.13333334 34.13333333h887.46666666c18.8416 0 34.13333333-15.29173333 34.13333334-34.13333333v0c-0.01699082-18.85859082-15.29173333-34.13333333-34.13333334-34.13333333h-887.46666666z"  horiz-adv-x="1024" />

    
    <glyph glyph-name="tuandui" unicode="&#58975;" d="M508.791484 284.286255C615.808793 284.286255 702.886029 371.344873 702.886029 478.362182 702.886029 585.323636 615.808793 672.363636 508.791484 672.363636 401.830029 672.363636 314.808648 585.323636 314.808648 478.362182 314.808648 371.344873 401.830029 284.286255 508.791484 284.286255L508.791484 284.286255ZM508.791484 644.436364C600.411557 644.436364 674.958757 569.9264 674.958757 478.362182 674.958757 386.742109 600.411557 312.213527 508.791484 312.213527 417.227266 312.213527 342.73592 386.742109 342.73592 478.362182 342.73592 569.9264 417.227266 644.436364 508.791484 644.436364L508.791484 644.436364ZM801.48792 350.008436C774.938393 350.008436 750.064502 358.907927 729.528648 375.738764 723.589448 380.635345 714.764429 379.778909 709.886466 373.802473 704.989884 367.844655 705.864939 359.038255 711.822757 354.141673 737.031775 333.475491 768.868866 322.081164 801.48792 322.081164 879.702902 322.081164 943.321229 385.680873 943.321229 463.858618 943.321229 542.017745 879.702902 605.598836 801.48792 605.598836 768.831629 605.598836 736.994539 594.223127 711.804139 573.556945 705.864939 568.678982 704.989884 559.872582 709.886466 553.914764 714.764429 547.956945 723.589448 547.081891 729.547266 551.959855 749.729375 568.548655 775.292139 577.671564 801.48792 577.671564 864.287048 577.671564 915.393957 526.620509 915.393957 463.858618 915.393957 401.078109 864.287048 350.008436 801.48792 350.008436L801.48792 350.008436ZM709.569957 182.947491C659.133302 267.008582 553.251702 256.489309 550.254175 256.042473L463.996139 256.042473C460.198029 256.116945 375.001229 258.351127 324.936939 186.391855 297.177229 146.586182 256.403411-6.157382 242.067411-69.719855 240.354539-77.260218 245.083557-84.726109 252.605302-86.420364 260.127048-88.151855 267.592939-83.404218 269.287193-75.863855 284.36792-9.117673 324.136357 136.402036 347.85592 170.417455 389.039339 229.623273 462.450829 227.984873 463.512066 228.1152L551.743629 228.189673C552.674539 228.301382 645.039339 237.182255 686.017957 167.941236 686.334466 167.401309 686.688211 166.88 687.079193 166.377309 712.232357 134.633309 754.346684-8.242618 769.855629-75.919709 771.345084-82.380218 777.098102-86.755491 783.46552-86.755491 784.48952-86.755491 785.532139-86.643782 786.593375-86.420364 794.096502-84.688873 798.806902-77.204364 797.075411-69.664 784.89912-16.583564 741.742175 141.0752 709.569957 182.947491L709.569957 182.947491ZM216.057811 322.081164C248.695484 322.081164 280.569811 333.475491 305.778829 354.141673 311.736648 359.038255 312.611702 367.844655 307.71512 373.802473 302.818539 379.778909 294.030757 380.635345 288.072939 375.738764 267.537084 358.907927 242.644575 350.008436 216.057811 350.008436 153.258683 350.008436 102.170392 401.078109 102.170392 463.858618 102.170392 526.620509 153.258683 577.671564 216.057811 577.671564 242.644575 577.671564 267.518466 568.790691 287.998466 551.959855 293.974902 547.081891 302.781302 547.956945 307.659266 553.914764 312.555848 559.872582 311.680793 568.678982 305.722975 573.556945 280.551193 594.223127 248.695484 605.598836 216.057811 605.598836 137.861447 605.598836 74.24312 542.017745 74.24312 463.858618 74.24312 385.680873 137.861447 322.081164 216.057811 322.081164L216.057811 322.081164ZM980.036284 125.957236C965.160357 193.057164 950.135484 237.815273 935.389884 259.021382 898.712066 311.841164 835.838466 310.202764 833.697375 310.146909L773.672357 310.053818C770.637593 310.463418 698.566611 317.6128 659.952502 262.968436 655.502757 256.675491 657.010829 247.943564 663.303775 243.512436 669.578102 239.081309 678.310029 240.552145 682.759775 246.863709 711.748284 287.9168 770.060429 282.405818 772.145666 282.219636L834.200066 282.219636C834.684139 282.573382 884.357448 283.560145 912.470902 243.084218 921.165593 230.5728 935.22232 199.0336 952.760648 119.924945 954.212866 113.4272 959.984502 108.977455 966.389157 108.977455 967.394539 108.977455 968.39992 109.089164 969.405302 109.312582 976.945666 110.988218 981.693302 118.435491 980.036284 125.957236L980.036284 125.957236ZM338.193084 241.613382C342.140139 234.948073 350.685884 232.751127 357.313957 236.7168 363.960648 240.645236 366.157593 249.2096 362.229157 255.837673 325.290684 318.189964 247.206029 310.426182 245.418684 310.146909L184.388283 310.146909C181.856211 310.146909 118.870901 311.897018 82.174465 259.021382 67.354392 237.703564 52.348138 192.926836 37.565301 125.957236 35.908283 118.416873 40.674538 110.9696 48.196283 109.312582 49.220283 109.089164 50.225665 108.977455 51.212429 108.977455 57.617083 108.977455 63.407338 113.4272 64.840938 119.943564 78.432211 181.551127 92.730974 225.285236 105.112065 243.084218 132.946247 283.2064 181.297665 282.219636 183.904211 282.219636L246.88952 282.294109C247.541157 282.368582 310.526466 288.3264 338.193084 241.613382L338.193084 241.613382Z"  horiz-adv-x="1024" />

    
    <glyph glyph-name="clothes" unicode="&#59004;" d="M937.028 705.741l-227.055 64.102c-8.806 2.526-18.227 1.092-25.873-3.755s-12.902-12.834-14.473-21.709c-12.971-77.346-79.394-133.461-157.628-133.461-30.583 0-56.252 13.107-79.394 27.307-15.019 9.216-34.748 4.506-44.032-10.581-9.216-15.019-4.506-34.748 10.581-44.032 29.696-18.159 66.219-36.727 112.845-36.727 97.69 0 182.067 62.259 212.309 152.371l172.032-48.538v-224.87l-121.856 24.371c-9.421 1.911-19.183-0.614-26.624-6.622-7.305-6.144-11.742-15.223-11.742-24.849v-352.256c0-17.681-14.336-32.017-32.017-32.017h-384.273c-17.681 0-32.017 14.336-32.017 32.017v384.273c0 9.626-4.301 18.637-11.674 24.781-7.509 6.076-17.203 8.533-26.624 6.622l-121.856-24.303v192.922l200.977 57.481c16.998 4.847 26.897 22.596 21.982 39.526-4.779 17.067-22.528 26.897-39.526 22.050l-224.256-64.102c-13.79-3.959-23.211-16.521-23.211-30.788v-256.205c0-9.626 4.301-18.637 11.674-24.713 7.373-6.076 17.203-8.533 26.624-6.622l121.856 24.371v-345.293c0-52.907 43.076-96.051 96.051-96.051h384.273c52.975 0 96.051 43.145 96.051 96.051v313.207l121.856-24.371c9.489-1.911 19.183 0.478 26.624 6.69 7.305 6.076 11.742 15.155 11.742 24.781v288.154c0 14.336-9.489 26.965-23.347 30.788zM319.829 130.526c0-17.681 14.336-32.017 32.017-32.017h320.171c17.749 0 32.085 14.336 32.085 32.017 0 17.749-14.336 32.085-32.085 32.085h-320.171c-17.613 0-32.017-14.336-32.017-32.085z"  horiz-adv-x="1024" />

    
    <glyph glyph-name="carts" unicode="&#59006;" d="M332.54 27.33c-39.53 0-71.533-32.065-71.533-71.594 0-39.532 32.003-71.596 71.533-71.596 39.531 0 71.595 32.065 71.595 71.596 0 39.529-32.065 71.594-71.595 71.594v0 0 0zM833.457 27.33c-39.53 0-71.534-32.065-71.534-71.594 0-39.532 32.004-71.596 71.534-71.596 39.532 0 71.594 32.065 71.594 71.596-0 39.529-32.063 71.594-71.594 71.594v0 0 0zM904.441 63.126h-581.14c-51.585 0-96.867 40.816-103.231 92.951l-60.702 427.364-34.512 199.792c-2.081 17.439-17.99 31.635-33.534 31.635h-45.587c-19.766 0-35.798 16.094-35.798 35.859s16.032 35.735 35.798 35.735h45.587c52.197 0 98.030-40.754 104.394-92.889l34.39-198.996 60.947-429.2c2.080-16.644 17.072-30.657 32.247-30.657h581.14c19.825 0 35.797-15.972 35.797-35.799-0.001-19.763-15.972-35.796-35.797-35.796v0 0zM368.031 206.316c-18.603 0-34.268 14.319-35.614 33.227-1.53 19.705 13.34 36.837 32.982 38.307l485.436 35.734c17.745 0.123 32.798 14.137 34.756 30.107l56.358 322.605c1.407 11.994-1.898 25.211-9.119 33.349-4.589 5.201-10.402 7.893-17.134 7.893l-619.505-0c-19.705 0-35.735 16.032-35.735 35.797s16.032 35.797 35.735 35.797h619.506c27.355 0 52.442-11.381 70.738-32.064 20.928-23.558 30.474-56.786 26.313-91.298l-56.42-322.666c-6.057-50.177-51.401-90.993-102.924-90.993l-482.742-35.675c-0.918-0.060-1.775-0.122-2.631-0.122v0 0z"  horiz-adv-x="1024" />

    
    <glyph glyph-name="shopping" unicode="&#58923;" d="M912.53-131.14l-36.637 575.147c-1.073 9.782-9.347 17.187-19.184 17.187h-153.993v77.101c0 106.574-86.409 192.984-192.984 192.984s-192.984-86.409-192.984-192.984v-77.101h-153.013c-9.819 0-18.074-7.369-19.167-17.112l-39.86-578.937c-0.621-5.468 1.112-10.931 4.769-15.019 3.656-4.11 8.896-6.465 14.398-6.465l769.885-0c0.149 0 0.282 0 0.377 0 10.668 0 19.299 8.65 19.299 19.3 0.001 2.072-0.319 4.032-0.905 5.898zM355.343 538.296c0 85.259 69.127 154.388 154.388 154.388 85.26 0 154.387-69.128 154.387-154.388v-77.101h-308.775v77.101zM145.49-117.722l35.469 540.321h135.788v-43.868c-11.534-6.675-19.299-19.138-19.299-33.422 0-21.314 17.282-38.596 38.596-38.596s38.598 17.282 38.598 38.596c0 14.283-7.766 26.746-19.299 33.421v43.869h308.775v-43.869c-11.533-6.675-19.298-19.138-19.298-33.42 0-21.314 17.284-38.596 38.598-38.596s38.596 17.282 38.596 38.596c0 14.283-7.766 26.747-19.299 33.422v43.868h136.693l32.829-540.321-726.749 0z"  horiz-adv-x="1024" />

    
    <glyph glyph-name="xiao36" unicode="&#58971;" d="M250.112-48.0832c2.8416-1.5616 5.9648-2.304 9.088-2.304 3.712 0 7.3984 1.0752 10.5984 3.1744l52.864 34.9184c0.8704 0.5632 1.6896 1.2288 2.4576 1.92l60.7232 40.448c30.0544-5.76 59.9296-8.6784 88.9344-8.6784 228.3776 0 414.208 161.6128 414.208 360.2944 0 198.7072-185.8304 360.3712-414.208 360.3712-228.4032 0-414.208-161.664-414.208-360.3712 0-119.1168 66.8672-229.2992 179.4816-296.7808l0-116.1216C240-38.2528 243.8912-44.7296 250.112-48.0832zM98.9184 381.7152c0 177.5616 168.576 321.9712 375.808 321.9712 207.2064 0 375.808-144.4352 375.808-321.9712 0-177.5104-168.6016-321.8944-375.808-321.8944-28.928 0-58.88 3.1744-89.0624 9.4464-4.992 1.0752-10.24 0.0256-14.5408-2.816l-69.9648-46.592c-0.8192-0.5376-1.6128-1.1776-2.3296-1.8176l-20.4288-13.4912 0 91.4688c0 6.9376-3.7376 13.3376-9.7536 16.7168C162.3552 172.6656 98.9184 273.248 98.9184 381.7152zM937.7024 312.0832l-30.8992-22.8096c27.0336-36.6336 41.2928-78.976 41.2928-122.4192 0-77.4144-45.4144-149.2992-121.4976-192.2304-6.016-3.4048-9.7536-9.8048-9.7536-16.7168l0-57.2928L810.24-95.008c-0.6144 0.5376-1.3312 1.0752-2.0224 1.5616l-51.1488 34.0736c-4.2752 2.8672-9.5488 3.9168-14.5664 2.816-89.9072-18.7648-176.9216 1.7152-241.8176 50.3808l-23.0144-30.7456c71.6544-53.6832 166.9376-77.0304 264.7296-58.8032l42.2912-28.1856c0.6656-0.5888 1.3824-1.152 2.1248-1.6384l38.656-25.5488c3.2-2.0992 6.912-3.1744 10.5984-3.1744 3.1232 0 6.2464 0.7424 9.088 2.304 6.2208 3.328 10.112 9.8304 10.112 16.896l0 82.0224c82.4064 50.432 131.2512 131.8656 131.2512 219.9296C986.496 218.592 969.6256 268.8192 937.7024 312.0832z"  horiz-adv-x="1024" />

    
    <glyph glyph-name="dianhua" unicode="&#59530;" d="M985.68707483 140.34527589000004l-140.31044595 140.37236583c-25.01563114 24.95371126-68.66914588 24.95371126-93.87053667 0l-62.29139833-62.29139834c-24.8298715-25.01563114-68.66914588-24.76795162-93.62285714 0L346.05472411 467.96335601c-25.75866969 25.75866969-25.75866969 67.86418745 0 93.62285714l62.47715798 62.35331822c12.38397581 12.50781557 19.19516251 28.97850341 19.1951625 46.81142857s-6.81118669 34.303613-19.1951625 46.81142857L268.09759637 857.99667422c-24.89179138 25.01563114-68.73106576 25.01563114-93.62285714 0L112.12142101 795.64335601C111.5641421 795.14799697 111.06878307 794.7764777 109.27310658 793.90959939 105.31023431 791.92816326 96.02225245 787.0984127 91.87362056 775.33363568c-80.37200303-83.65375662-94.48973545-187.86491308-41.67207861-309.59939531 39.07144369-90.52686319 115.35673469-191.76586546 233.43794407-309.59939532 180.62028723-180.92988662 322.16913077-264.83132275 445.76120937-264.83132275 64.89203326 0 123.40631897 24.52027211 173.80910053 72.94161753 11.64093726 3.90095238 16.47068783 13.31277399 18.39020408 17.33756614 0.99071807 1.60991685 1.30031746 2.22911564 1.67183674 2.84831443l62.47715797 62.35331822C1011.56958427 72.66684807000001 1011.56958427 114.46276644 985.68707483 140.34527589000004L985.68707483 140.34527589000004zM205.6204384 826.78905518c8.23534392 8.2972638 22.91035525 8.2972638 31.3314588 0l140.37236584-140.4962056c4.08671202-3.96287226 6.37774755-9.53566138 6.37774755-15.54188964 0-5.82046863-2.29103553-11.51709751-6.37774755-15.54188965L330.45091459 608.33572184l-171.51806501 171.70382464L205.6204384 826.78905518 205.6204384 826.78905518zM729.40069539-64.54760393000004c-109.53626606 0-245.14080121 82.29151928-414.49167045 251.76622827C200.91452759 301.2131217 127.47755102 397.99389267 90.63522298 483.31948602 44.25723356 590.62663643 56.33160998 677.50022675 127.60139078 748.89384731l173.18990174-173.31374149C272.49390779 532.8553892699999 277.1998186 474.52686319 314.84710507 436.81765684l249.66095238-249.5990325C585.37505669 166.22778533999997 612.92940287 154.89644747 642.58902494 154.89644747c21.85771731 0 42.91047619 6.62542706 60.6195616 18.14252457l173.31374151-173.12798187C833.1784127-43.49484504999998 784.75706728-64.54760393000004 729.40069539-64.54760393000004L729.40069539-64.54760393000004zM954.4175359 77.93003779000003L907.85378685 31.056689340000048l-171.64190476 171.57998488 46.74950869 46.93526833c8.35918367 8.35918367 23.03419501 8.35918367 31.20761905 0l140.31044596-140.55812547C963.14823885 100.40695388999995 963.14823885 86.53690098000004 954.4175359 77.93003779000003L954.4175359 77.93003779000003z"  horiz-adv-x="1024" />

    
    <glyph glyph-name="search" unicode="&#58929;" d="M892.717949 449.641026C892.717949 696.158279 692.876235 896 446.358974 896 199.841713 896 0 696.158279 0 449.641026 0 203.12377200000003 199.841713 3.282051000000024 446.358974 3.282051000000024 692.876235 3.282051000000024 892.717949 203.12377200000003 892.717949 449.641026ZM52.512821 449.641026C52.512821 667.156249 228.843756 843.487179 446.358974 843.487179 663.874192 843.487179 840.205128 667.156249 840.205128 449.641026 840.205128 232.12580200000002 663.874192 55.794872000000055 446.358974 55.794872000000055 228.843756 55.794872000000055 52.512821 232.12580200000002 52.512821 449.641026ZM979.177498-120.30967599999997L1016.309681-83.177504 780.001989 153.13018899999997 742.869806 115.998016 979.177498-120.30967599999997Z"  horiz-adv-x="1024" />

    
    <glyph glyph-name="tixingnaozhong" unicode="&#58933;" d="M880.048356 364.329956C884.872533 340.300089 887.466667 315.451022 887.466667 290.010311c0-107.087644-45.033244-203.434667-116.963556-271.837867l90.294044-90.294044c8.897422-8.897422 8.897422-23.278933 0-32.176356s-23.278933-8.897422-32.176356 0l-93.115733 93.115733c-62.509511-46.444089-139.6736-74.274133-223.505067-74.274133-84.1728 0-161.632711 28.034844-224.233244 74.820267l-91.090489-91.090489c-8.533333-8.533333-22.368711-8.533333-30.879289 0-8.533333 8.510578-8.533333 22.345956 0 30.879289l88.382578 88.405333C181.8624 85.984 136.533333 182.604089 136.533333 290.010311c0 25.440711 2.594133 50.289778 7.418311 74.3424C98.008178 399.692089 68.266667 455.079111 68.266667 517.565867c0 106.814578 86.607644 193.422222 193.422222 193.422222 55.864889 0 106.040889-23.825067 141.357511-61.713067 34.497422 10.467556 71.042844 16.201956 108.9536 16.201956s74.433422-5.7344 108.9536-16.201956c35.316622 37.888 85.492622 61.713067 141.357511 61.713067 106.814578 0 193.422222-86.607644 193.422222-193.422222C955.733333 455.079111 925.991822 399.692089 880.048356 364.329956zM261.688889 665.476978c-81.692444 0-147.911111-66.218667-147.911111-147.911111 0-41.028267 16.702578-78.097067 43.667911-104.880356 33.5872 97.029689 105.654044 175.832178 198.109867 218.339556C329.955556 652.210489 297.528889 665.476978 261.688889 665.476978zM512 619.965867c-182.226489 0-329.955556-147.729067-329.955556-329.955556 0-182.249244 147.729067-329.955556 329.955556-329.955556S841.955556 107.761067 841.955556 290.010311C841.955556 472.214044 694.226489 619.965867 512 619.965867zM762.311111 665.476978c-35.84 0-68.266667-13.266489-93.866667-34.474667 92.455822-42.507378 164.522667-121.309867 198.109867-218.339556C893.519644 439.4688 910.222222 476.5376 910.222222 517.565867 910.222222 599.235556 844.003556 665.476978 762.311111 665.476978zM682.666667 255.876978l-182.044444 0c-12.583822 0-22.755556 10.171733-22.755556 22.755556l0 204.8c0 12.583822 10.171733 22.755556 22.755556 22.755556s22.755556-10.171733 22.755556-22.755556l0-182.044444 159.288889 0c12.583822 0 22.755556-10.171733 22.755556-22.755556S695.250489 255.876978 682.666667 255.876978z"  horiz-adv-x="1024" />

    
    <glyph glyph-name="news" unicode="&#58910;" d="M919.7798552 406.54526317M512-79.83931307c-11.54060221 0-22.36661609 5.57378931-29.04801736 14.97062643l-72.45926105 101.43581959C178.53733564 77.40585848 11.78813874 251.80115094999996 11.78813874 456.10196685c0 236.42156329 224.3807492 428.75302395 500.21186126 428.75302394 275.83111207 0 500.21186126-192.33146064 500.21186126-428.75302394 0-204.33654533-166.74919689-378.6961084-398.66885342-419.4991045l-72.45926106-101.47154899C534.36661609-74.26552375000006 523.54060221-79.83931307 512-79.83931307L512-79.83931307zM512 813.39615347c-236.42156329 0-428.75302395-160.28217211-428.75302395-357.29418662 0-173.03757458 148.42000512-320.81445014 352.89946812-351.32737368 9.5754842-1.42917676 18.18627409-6.7171307 23.79579285-14.57760282L512 17.380435120000016l52.05776298 72.85228465c5.60951873 7.89620153 14.18457921 13.14842606 23.79579285 14.57760282C792.33301881 135.28751670999998 940.75302395 283.02866286999995 940.75302395 456.10196685 940.75302395 653.11398137 748.42156329 813.39615347 512 813.39615347L512 813.39615347zM261.92979878 384.64312953c-39.40954879 0-71.45883732 32.04928855-71.45883731 71.45883732 0 39.40954879 32.04928855 71.45883732 71.45883731 71.45883734 39.40954879 0 71.45883732-32.04928855 71.45883734-71.45883734C333.38863612 416.69241808 301.33934758 384.64312953 261.92979878 384.64312953L261.92979878 384.64312953zM261.96552821 456.10196685L261.89406935 456.10196685l0.03572943-35.72941865L261.96552821 456.10196685 261.96552821 456.10196685zM762.14166005 384.64312953c-39.40954879 0-71.45883732 32.04928855-71.45883732 71.45883732 0 39.40954879 32.04928855 71.45883732 71.45883732 71.45883734 39.40954879 0 71.45883732-32.04928855 71.45883733-71.45883734C833.60049738 416.69241808 801.55120882 384.64312953 762.14166005 384.64312953L762.14166005 384.64312953zM762.17738947 456.10196685L762.10593065 456.10196685l0.0357294-35.72941865L762.17738947 456.10196685 762.17738947 456.10196685zM512.03572942 384.64312953c-39.40954879 0-71.45883732 32.04928855-71.45883733 71.45883732 0 39.40954879 32.04928855 71.45883732 71.45883733 71.45883734s71.45883732-32.04928855 71.45883732-71.45883734C583.49456674 416.69241808 551.4452782 384.64312953 512.03572942 384.64312953L512.03572942 384.64312953zM512.07145883 456.10196685L512 456.10196685l0.03572942-35.72941865L512.07145883 456.10196685 512.07145883 456.10196685zM512.07145883 456.10196685"  horiz-adv-x="1024" />

    
    <glyph glyph-name="kefu" unicode="&#58916;" d="M259.048941 114.303694c82.195024-61.198827 164.389024-80.407308 255.07135-80.407308 91.128487 0 189.404768 36.183084 251.05078 88.001263 78.174454-42.437531 147.414421-138.479935 148.753929-231.395114L108.507296-109.497465C119.67566 0.839503 196.509583 80.353464 259.048941 114.303694zM759.809969 162.99465c-65.666582-60.305481-153.667845-96.93575-250.603595-96.93575s-184.938036 36.630269-250.603595 96.489588C141.118018 103.582515 63.836911-1.840536 63.836911-145.234387L957.255877-145.234387C957.255877-1.840536 878.635261 104.0297 759.809969 162.99465zM218.845287 293.434467 218.845287 520.809011l-9.827833-0.447185c51.818179 112.12366 166.622902 189.851952 300.18892 189.851952 133.119857 0 247.923556-77.727269 299.741735-189.851952l-9.380648 0.447185 0-227.375567c63.879889 0 116.14423 50.924833 116.14423 113.464191 0 42.883693-24.122397 79.961146-59.859319 99.615788C806.26807 647.228259 670.022013 748.184579 509.206374 748.184579s-297.061696-100.95632-347.093183-241.670132c-35.736922-19.655665-59.412135-56.732096-59.412135-99.615788C102.701057 344.3593 154.519236 293.434467 218.845287 293.434467L218.845287 293.434467zM508.759189 183.0975c-116.14423 0-209.953779 92.021833-209.953779 205.486024s99.615788 205.486024 209.953779 205.486024c115.698069 0 209.506595-92.021833 209.506595-205.486024S624.457258 183.0975 508.759189 183.0975zM509.206374 634.273203c-138.927119 0-251.496941-110.336968-251.496941-246.136863 0-136.246057 112.570845-246.584048 251.496941-246.584048 138.479935 0 251.05078 110.336968 251.05078 246.584048C760.257154 523.936235 647.686309 634.273203 509.206374 634.273203z"  horiz-adv-x="1024" />

    
    <glyph glyph-name="geren" unicode="&#58943;" d="M540.842397 269.699903M256.722454 475.656649c0 137.247874 113.578802 248.478188 253.686816 248.478188 140.119271 0 253.686816-111.230314 253.686816-248.478188 0-137.226385-113.567545-248.473071-253.686816-248.473071C370.307396 227.178461 256.722454 338.431288 256.722454 475.656649L256.722454 475.656649 256.722454 475.656649zM211.951785 475.656649c0-117.863385 71.251787-219.473597 173.847443-265.72806-172.775019-48.938596-302.560944-197.078541-320.840262-377.394303l44.989657 0c22.275329 197.319018 193.054901 350.796528 400.459624 350.796528s378.189412-153.476487 400.460648-350.796528l44.989657 0C937.591513 12.851071 807.793308 160.989993 635.020336 209.928588c102.594633 46.249347 173.85256 147.864676 173.85256 265.72806 0 161.450089-133.629463 292.324812-298.462602 292.324812C345.572038 767.982484 211.951785 637.111854 211.951785 475.656649L211.951785 475.656649 211.951785 475.656649zM211.951785 475.656649"  horiz-adv-x="1024" />

    
    <glyph glyph-name="jiantou1" unicode="&#59015;" d="M396.763-83.511c-0.001 8.583 3.241 17.168 9.738 23.769l436.548 443.422-436.638 446.942c-13.076 13.385-12.827 34.835 0.558 47.911s34.836 12.827 47.911-0.559l459.86-470.709c12.897-13.199 12.857-34.293-0.092-47.446l-459.86-467.101c-13.125-13.333-34.579-13.502-47.913-0.373-6.736 6.631-10.11 15.388-10.111 24.146zM190.235 734.168c0 5.871 2.272 11.732 6.803 16.158 8.924 8.717 23.223 8.55 31.941-0.371l342.505-350.582c8.58-8.784 8.574-22.813-0.018-31.587l-341.148-348.401c-8.727-8.913-23.028-9.063-31.941-0.337-8.913 8.727-9.065 23.029-0.337 31.941l325.693 332.615-327.066 334.778c-4.291 4.394-6.432 10.092-6.432 15.783z"  horiz-adv-x="1024" />

    
    <glyph glyph-name="medal" unicode="&#58985;" d="M511.999 565.323c-93.626 0-169.527-75.19-169.527-168.819 0-93.626 75.9-170.232 169.527-170.232 93.63 0 169.525 76.606 169.525 170.232 0 93.63-75.895 168.819-169.525 168.819zM511.999 268.977c-70.034 0-126.821 57.491-126.821 127.527 0 70.036 56.786 126.112 126.821 126.112 70.037 0 126.818-56.075 126.818-126.112 0.001-70.034-56.78-127.527-126.818-127.527zM850.185 396.504c0 186.782-151.402 338.8-338.186 338.8-186.78 0-338.186-152.016-338.186-338.8 0-126.265 69.199-235.733 171.734-293.821v-261.987h42.273l129.461 79.769 124.177-79.769h42.274l-0 265.050c99.621 58.84 166.452 166.676 166.452 290.758zM641.46-103.41l-129.46 71.841-124.178-74.91-0 188.938c38.443-15.183 80.337-23.527 124.178-23.527 45.863 0 89.582 9.147 129.46 25.686l0-188.029zM511.999 101.393c-44.318 0-86.435 9.759-124.178 27.222l-3.543 1.654c-99.526 47.658-168.274 148.511-168.274 266.235 0 163.439 132.578 296.713 295.994 296.713s295.831-133.275 295.831-296.713c0-163.435-132.413-295.111-295.83-295.111z"  horiz-adv-x="1024" />

    
    <glyph glyph-name="jinlingyingcaiwangtubiao07" unicode="&#59146;" d="M834.87402667-45.39733333000004c-5.05173333 0-10.10346667 1.85685333-14.09024 5.59786666-8.21930667 7.75509333-8.54698667 20.72576-0.79189334 28.94506667 87.70901333 92.78805333 135.9872 214.24810667 135.9872 341.96138667C956.0064 605.7028266699999 732.58325333 829.0986666700001 457.96010667 829.0986666700001c-11.30496 0-20.48 9.17504-20.48 20.48s9.17504 20.48 20.48 20.48c297.20576 0 538.97898667-241.77322667 538.97898666-538.92437334 0-138.25365333-52.26496-269.68064-147.21024-370.11456C845.74208-43.240106670000046 840.30805333-45.39733333000004 834.87402667-45.39733333000004zM457.96010667 769.8705066699999c-241.90976 0-438.73621333-196.82645333-438.73621334-438.73621334s196.82645333-438.73621333 438.73621334-438.73621333c241.93706667 0 438.79082667 196.82645333 438.79082666 438.73621333S699.92448 769.8705066699999 457.96010667 769.8705066699999zM442.04032 480.41984c0 10.43114667 0.90112 18.40469333 2.78528 23.97525333 1.82954667 5.57056 4.39637333 10.21269333 7.67317333 13.89909334 3.24949333 3.71370667 9.31157333 7.07242667 18.13162667 10.07616 8.82005333 3.00373333 18.78698667 4.5056 29.92810667 4.5056l125.22837333 0c39.51274667 0 59.31008-17.23050667 59.31008-51.69152l0-117.93749334c0-14.69098667-1.52917333-26.18709333-4.5056-34.59754666-3.00373333-8.41045333-7.59125333-15.45557333-13.78986667-21.18997334-6.17130667-5.7344-20.28885333-8.6016-42.35264-8.6016l-120.99584 0c-20.83498667 0-34.59754667 2.32106667-41.31498666 7.01781334-6.69013333 4.69674667-11.74186667 10.59498667-15.10058667 17.74933333s-5.02442667 16.11093333-5.02442667 26.89706667L442.01301333 480.41984zM350.37184 304.12800000000004l0-220.31018667c0-5.98016-1.96608-10.94997333-5.95285333-14.93674666-3.95946667-3.95946667-8.6016-5.76170667-14.00832-5.40672-5.21557333 0.19114667-9.63925333 2.26645333-13.21642667 6.22592s-5.37941333 8.68352-5.37941333 14.14485333l0 217.41568c-9.17504-15.67402667-17.58549333-29.76426667-25.23136-42.27072-7.67317333-12.50645333-14.30869333-23.59296-19.93386667-33.28682667-5.65248-9.66656-11.4688-16.41130667-17.44896-20.20693333-6.00746667-3.79562667-11.55072-5.7344-16.62976-5.81632-5.13365333-0.08192-9.47541333 1.96608-13.07989333 6.19861333-3.60448 4.23253333-4.83328 8.90197333-3.6864 14.00832s4.96981333 13.05258667 11.49610666 23.78410667c6.49898667 10.73152 11.44149333 18.75968 14.77290667 24.02986667l26.43285333 41.72458666c11.44149333 19.19658667 19.55157333 34.87061333 24.30293334 47.02208l8.46506666 21.13536L245.21386667 377.58293332999995c-4.75136 0-8.87466667 1.77493333-12.39722667 5.37941334s-5.18826667 8.192-5.05173333 13.76256c0 5.57056 1.80224 10.21269333 5.43402666 13.89909333 3.60448 3.6864 7.59125333 5.54325333 11.98762667 5.54325333l66.57365333 0 0 73.42762667c-26.43285333-6.52629333-43.52682667-9.8304-51.25461333-9.91232-7.75509333-0.08192-13.87178667 1.58378667-18.37738667 5.02442667-4.47829333 3.44064-6.28053333 8.57429333-5.40672 15.45557333 0.35498667 4.56021333 2.23914667 8.35584 5.67978667 11.35957333 3.44064 2.97642667 10.94997333 5.3248 22.58261333 6.99050667 11.63264 1.66570667 26.65130667 5.24288 45.02869334 10.70421333 18.432 5.46133333 33.80565333 11.11381333 46.23018666 16.90282667 12.42453333 5.81632 21.62688 8.68352 27.60704 8.57429333 6.00746667-0.08192 11.00458667-1.88416 15.07328-5.40672s6.08938667-7.64586667 6.08938667-12.42453333c-0.19114667-4.94250667-2.75797333-9.72117333-7.67317333-14.39061333s-11.96032-8.76544-21.10805334-12.288l-25.88672-10.04885334 0-83.99530666 50.70848 0c4.94250667 0 9.25696-1.74762667 12.97066667-5.27018667 3.6864-3.49525333 5.67978667-7.97354667 5.92554667-13.35296 0.27306667-5.40672-1.50186667-10.07616-5.27018667-14.03562667-3.79562667-3.95946667-8.32853333-5.92554667-13.59872-5.92554666l-50.70848 0 0-13.73525334c17.25781333-16.54784 28.75392-28.18048 34.48832-34.87061333 5.70709333-6.69013333 14.17216-17.64010667 25.36789333-32.87722667 11.16842667-15.23712 16.24746667-26.46016 15.20981334-33.69642666-0.90112-5.27018667-3.03104-9.47541333-6.47168-12.53376s-7.18165333-4.80597333-11.22304-5.13365334c-8.98389333-0.87381333-17.77664 5.10634667-26.43285334 17.96778667l-15.07328 21.92725333L350.37184 304.12800000000004zM503.34378667 208.50005333000001c-14.80021333-25.01290667-23.53834667-39.54005333-26.29632-43.60874666-2.73066667-4.04138667-11.63264-16.49322667-26.67861334-37.38282667-15.07328-20.86229333-26.624-34.29717333-34.62485333-40.30464-8.02816-5.98016-15.01866667-8.62890667-21.02613333-7.91893333-3.52256 0.16384-7.26357333 1.74762667-11.22304 4.75136-3.95946667 2.97642667-5.98016 7.12704-6.08938667 12.42453333-0.08192 5.27018667 3.49525333 12.15146667 10.73152 20.58922667 14.96405333 17.44896 25.58634667 30.14656 31.81226667 38.17472 6.25322667 8.00085333 14.36330667 19.55157333 24.33024 34.62485333 9.93962667 15.04597333 17.94048 29.79157333 24.02986666 44.2368s11.4688 23.83872 16.13824 28.12586667c4.66944 4.31445333 8.49237333 6.90858667 11.49610667 7.80970666 5.10634667 1.2288 9.88501333 0.16384 14.36330667-3.16757333 4.5056-3.35872 7.01781333-9.61194667 7.53664-18.75968C518.38976 238.97429333000002 513.55648 225.75786667 503.34378667 208.50005333000001zM708.30762667 99.65567999999996c-1.03765333-4.39637333-4.34176-9.91232-9.88501334-16.52053333-5.54325333-6.60821333-13.43488-4.61482667-23.64757333 5.95285333-3.33141333 3.16757333-6.9632 8.76544-10.81344 16.76629333s-17.17589333 31.62112-39.89504 70.80618667-35.11637333 61.30346667-37.24629333 66.30058667c-2.10261333 5.02442667-3.16757333 8.68352-3.16757334 10.94997333-0.35498667 8.98389333 2.29376 14.93674667 7.94624 17.83125333 5.62517333 2.89450667 11.52341333 3.30410667 17.66741334 1.17418667 5.81632-2.29376 14.49984-12.50645333 26.02325333-30.63808 11.55072-18.15893333 22.58261333-36.01749333 33.15029333-53.63029333l22.20032-37.51936c8.46506667-14.25408 13.76256-25.04021333 15.9744-32.3584C708.79914667 111.50677332999999 709.39989333 105.11701332999996 708.30762667 99.65567999999996zM490.20928 341.89311999999995c2.53952-1.39264 7.12704-2.10261333 13.73525333-2.10261333l115.01568 0c7.86432 0 13.81717333 1.39264 17.83125334 4.17792 3.98677333 2.81258667 6.03477333 9.80309333 6.03477333 20.99882666l0 101.00736c0 7.18165333-0.79189333 12.42453333-2.37568 15.72864-1.58378667 3.33141333-3.57717333 5.87093333-6.03477333 7.61856s-7.18165333 2.62144-14.14485334 2.62144l-116.35370666 0c-5.92554667 0-10.21269333-0.84650667-12.83413334-2.48490666-2.62144-1.66570667-4.39637333-4.42368-5.35210666-8.27392-0.95573333-3.85024-1.44725333-9.17504-1.44725334-16.00170667l0-101.25312c0-6.30784 0.35498667-11.19573333 1.03765334-14.69098667C486.05866667 345.74336000000005 487.66976 343.28576 490.20928 341.89311999999995z"  horiz-adv-x="1024" />

    
    <glyph glyph-name="jinlingyingcaiwangtubiao58" unicode="&#59331;" d="M853.38794667 726.53482667c-92.81536 92.81536-216.24149333 143.93344-347.53194667 143.93344-131.31776 0-254.74389333-51.14538667-347.58656-143.98805334-191.63818667-191.63818667-191.63818667-503.45301333 0-695.06389333 92.81536-92.81536 216.24149333-143.93344 347.55925333-143.93344 131.29045333 0 254.68928 51.11808 347.53194667 143.93344C1045.02613333 223.05450667000002 1045.02613333 534.8966399999999 853.38794667 726.53482667zM824.38826667 60.36138667c-85.08757333-85.08757333-198.21909333-131.94581333-318.55957334-131.94581334-120.36778667 0-233.49930667 46.85824-318.58688 131.94581334s-131.94581333 198.2464-131.94581333 318.58688 46.85824 233.472 131.94581333 318.55957333c85.08757333 85.11488 198.27370667 132.00042667 318.61418667 132.00042667s233.472-46.88554667 318.55957333-131.94581334C1000.07936 521.89866667 1000.07936 236.05247999999995 824.38826667 60.36138667z"  horiz-adv-x="1024" />

    
    <glyph glyph-name="904anquansaoma" unicode="&#58949;" d="M392.087956 746.088848 65.932642 746.088848l0-326.155315 326.155315 0L392.087956 746.088848zM361.38877 450.632719 96.631828 450.632719 96.631828 715.389662l264.756943 0L361.38877 450.632719zM65.932642-144.140473l326.155315 0L392.087956 182.013819 65.932642 182.013819 65.932642-144.140473zM96.631828 151.314633l264.756943 0 0-264.756943L96.631828-113.44231 96.631828 151.314633zM631.217219 746.088848l0-326.155315 326.155315 0L957.372533 746.088848 631.217219 746.088848zM926.672324 450.632719 661.916405 450.632719 661.916405 715.389662l264.756943 0L926.673347 450.632719zM81.282235 329.886681l860.783685 0 0-30.699186-860.783685 0 0 30.699186ZM490.458381 166.751207l30.699186 0 0-296.795637-30.699186 0 0 296.795637ZM679.541831 166.751207l30.699186 0 0-296.795637-30.699186 0 0 296.795637ZM868.627327 166.751207l30.699186 0 0-296.795637-30.699186 0 0 296.795637ZM490.458381 730.739255l30.699186 0 0-293.866934-30.699186 0 0 293.866934Z"  horiz-adv-x="1024" />

    
    <glyph glyph-name="cuxiao1" unicode="&#58927;" d="M154.724213 666.642863c-30.985647-31.646287-30.985647-82.983937 0-114.629201 30.976443-31.667763 81.208595-31.667763 112.194242 0 30.985647 31.645264 30.985647 82.982914 0 114.629201C235.932808 698.287104 185.700656 698.287104 154.724213 666.642863zM234.666752 584.507736c-6.39164-6.527654-14.855193-10.121289-23.861781-10.121289-8.996361 0-17.460937 3.593636-23.861781 10.121289-13.38665 13.69754-13.38665 35.941469 0 49.617532 6.379368 6.528676 14.86542 10.143788 23.861781 10.143788 9.006587 0 17.491617-3.615111 23.872007-10.143788C248.075901 620.449204 248.075901 598.205275 234.666752 584.507736zM987.855533 353.975097l-0.786427 0.829379L525.873949 781.099234C511.456455 795.75194 491.592261 812 277.987752 812c-106.78129 0-214.167996-4.189848-215.242814-4.210301l-41.800301-1.658758-1.82852-42.407763c-0.042952-1.169926-4.987524-116.732817-6.794569-231.277138-1.064592-67.756495-0.840628-122.071115 0.681093-161.434412 1.902152-50.084889 3.615111-94.40503 31.484706-111.291231L500.673503-175.633104c22.946498-23.457829 53.486264-36.366896 85.960907-36.366896 32.496119 0 63.035885 12.908044 85.982383 36.366896l0.829379 0.849832 288.486915 327.489212C1006.210277 198.91903 1038.939563 301.808067 987.855533 353.975097zM928.75383 184.244848 640.37634-143.13903c-29.688911-30.325007-77.795971-30.325007-107.461361 0L69.783923 298.892457c-25.05216 3.766465-5.27387 462.811986-5.27387 462.811986S465.371198 777.484123 494.48435 747.753283L955.615079 321.500453C985.302968 291.152948 958.444786 214.5719 928.75383 184.244848z"  horiz-adv-x="1024" />

    
    <glyph glyph-name="a" unicode="&#58953;" d="M548.032 659.424c178.624 0 323.456-144.832 323.456-323.456 0-9.92 8.064-17.984 17.984-17.984 9.92 0 17.984 8.064 17.984 17.984 0 198.528-160.896 359.424-359.424 359.424-9.92 0-17.984-8.064-17.984-17.984C530.048 667.424 538.112 659.424 548.032 659.424M548.032 479.712c79.424 0 143.744-64.384 143.744-143.808 0-9.92 8.064-17.984 17.984-17.984 9.92 0 17.984 8.064 17.984 17.984 0 99.264-80.448 179.712-179.712 179.712-9.92 0-17.984-8.064-17.984-17.984C530.048 487.712 538.112 479.712 548.032 479.712M548.032 300c19.84 0 35.968 16.128 35.968 35.904 0 19.84-16.128 35.968-35.968 35.968-19.84 0-35.968-16.128-35.968-35.968C512.128 316.128 528.192 300 548.032 300M906.944 66.656c0 14.848-6.016 28.352-15.808 38.144-2.88 2.88-6.08 5.312-9.6 7.488l-152.128 118.336c-9.792 9.728-23.232 15.808-38.144 15.808-12.16 0-23.296-4.224-32.32-11.072L616.576 192.544 616.448 192.608c-6.592-7.36-16-12.032-26.688-12.032-12.16 0-22.848 6.08-29.376 15.296C560.192 195.552 559.872 195.168 559.616 194.784 500.928 237.408 448.896 288.736 406.336 347.488c0.384 0.256 0.768 0.576 1.216 0.832C398.144 354.912 392 365.728 392 378.08c0 11.008 4.992 20.736 12.736 27.392L404.672 405.472l42.24 41.92c6.848 8.96 11.008 20.096 11.008 32.256 0 14.848-6.016 28.352-15.808 38.144L323.84 669.984C321.728 673.376 319.296 676.704 316.416 679.52 306.624 689.312 293.184 695.328 278.272 695.328c-71.872 0-161.728-84.48-161.728-188.672 0-28.864 6.656-56.128 18.24-80.576L134.208 425.44c108.096-215.296 287.808-395.008 503.168-503.168l0.576 0.576c24.448-11.584 51.712-18.24 80.576-18.24 104.192 0 188.672 89.856 188.672 161.728 0 0.064 0 0.192 0 0.256L906.944 66.592zM718.528-59.424c-22.528 0-44.48 4.992-65.216 14.784-1.92 0.896-3.968 1.664-6.016 2.176-204.288 104.256-373.568 273.472-477.824 477.696C168.96 437.344 168.256 439.456 167.296 441.44 157.44 462.176 152.512 484.128 152.512 506.656c0 87.168 76.288 152.768 125.76 152.768 6.464 0 10.752-3.328 12.736-5.248 0.448-0.448 1.28-1.408 2.432-3.328 0.64-1.024 1.344-1.984 2.048-2.944l118.336-152.128C414.72 494.56 415.744 493.472 416.768 492.384c1.984-1.984 5.248-6.272 5.248-12.736 0-3.2-0.896-6.208-2.624-8.96L379.392 431.008C379.2 430.816 379.008 430.688 378.816 430.432 364.352 416.8 356.032 397.856 356.032 378.08c0-18.56 7.232-36.288 19.712-49.536 0.448-0.704 0.896-1.408 1.408-2.112 44.16-61.056 98.432-115.136 161.344-160.768 0.512-0.32 0.96-0.704 1.472-1.024 13.248-12.736 31.104-20.096 49.728-20.096 18.752 0 36.864 7.488 50.304 20.672 0.704 0.576 1.344 1.216 1.984 1.856l40.256 40.576c2.816 1.792 5.824 2.688 8.96 2.688 6.464 0 10.752-3.328 12.736-5.248 1.088-1.088 2.176-2.048 3.328-3.008l152.128-118.336c0.96-0.768 1.984-1.472 3.008-2.112 1.92-1.216 2.752-1.984 3.2-2.368 1.984-1.984 5.248-6.208 5.248-12.736 0-1.216 0.064-2.432 0.192-3.648C868.352 13.6 803.776-59.424 718.528-59.424"  horiz-adv-x="1024" />

    
    <glyph glyph-name="7tianwuliyoutuihuo" unicode="&#58921;" d="M1016.010752 629.500672 823.296 675.465984l-9.75872-194.332672 96.571392 70.764544C957.906944 476.617472 983.04 390.097664 983.04 300c0-259.731456-211.308544-471.04-471.04-471.04S40.96 40.268544 40.96 300 252.268544 771.04 512 771.04c41.95328 0 83.552256-5.513216 123.639808-16.388096 10.924032-2.963456 22.167552 3.487744 25.12896 14.403584s-3.487744 22.165504-14.403584 25.12896C602.781696 806.005504 557.574144 812 512 812 375.240704 812 246.665216 758.743808 149.960704 662.039296S0 436.759296 0 300s53.256192-265.334784 149.960704-362.039296S375.240704-212 512-212s265.336832 53.256192 362.039296 149.960704C970.74176 34.665216 1024 163.240704 1024 300c0 98.859008-27.865088 193.76128-80.797696 276.148224L1016.010752 629.500672zM508.229632 78.459648 652.529664 443.239168 652.529664 481.200896 374.58944 481.200896 374.58944 412.039936 563.869696 412.039936 419.569664 78.459648Z"  horiz-adv-x="1024" />

    
    </font>
</defs>
</svg>
